<svg xmlns="http://www.w3.org/2000/svg" width="640" height="480" viewBox="0 0 640 480" font-family="monospace" font-size="12">
<rect width="640" height="480" fill="#0a0c14"/>
<g stroke="#323c5a" stroke-width="1">
<line x1="0" y1="436" x2="640" y2="436"/>
<line x1="45" y1="0" x2="45" y2="480"/>
</g>
<g stroke="#5aaaff" stroke-width="1" fill="none">
<line x1="40" y1="440" x2="28" y2="429"/>
<polyline points="33.4,430.5 28,429 30.0,434.2"/>
<line x1="40" y1="407" x2="38" y2="423"/>
<polyline points="36.1,417.7 38,423 41.1,418.3"/>
<line x1="40" y1="373" x2="39" y2="389"/>
<polyline points="36.8,383.9 39,389 41.8,384.2"/>
<line x1="40" y1="340" x2="40" y2="356"/>
<polyline points="37.5,351.0 40,356 42.5,351.0"/>
<line x1="40" y1="307" x2="40" y2="323"/>
<polyline points="37.5,318.0 40,323 42.5,318.0"/>
<line x1="40" y1="273" x2="40" y2="289"/>
<polyline points="37.5,284.0 40,289 42.5,284.0"/>
<line x1="40" y1="240" x2="40" y2="256"/>
<polyline points="37.5,251.0 40,256 42.5,251.0"/>
<line x1="40" y1="207" x2="40" y2="223"/>
<polyline points="37.5,218.0 40,223 42.5,218.0"/>
<line x1="40" y1="173" x2="40" y2="189"/>
<polyline points="37.5,184.0 40,189 42.5,184.0"/>
<line x1="40" y1="140" x2="40" y2="156"/>
<polyline points="37.5,151.0 40,156 42.5,151.0"/>
<line x1="40" y1="107" x2="40" y2="123"/>
<polyline points="37.5,118.0 40,123 42.5,118.0"/>
<line x1="40" y1="73" x2="40" y2="89"/>
<polyline points="37.5,84.0 40,89 42.5,84.0"/>
<line x1="40" y1="40" x2="40" y2="56"/>
<polyline points="37.5,51.0 40,56 42.5,51.0"/>
<line x1="87" y1="440" x2="103" y2="438"/>
<polyline points="98.3,441.1 103,438 97.7,436.1"/>
<line x1="87" y1="407" x2="98" y2="418"/>
<polyline points="92.7,416.2 98,418 96.2,412.7"/>
<line x1="87" y1="373" x2="92" y2="388"/>
<polyline points="88.0,384.0 92,388 92.8,382.5"/>
<line x1="87" y1="340" x2="89" y2="356"/>
<polyline points="85.9,351.3 89,356 90.9,350.7"/>
<line x1="87" y1="307" x2="87" y2="323"/>
<polyline points="84.5,318.0 87,323 89.5,318.0"/>
<line x1="87" y1="273" x2="86" y2="289"/>
<polyline points="83.8,283.9 86,289 88.8,284.2"/>
<line x1="87" y1="240" x2="86" y2="256"/>
<polyline points="83.8,250.9 86,256 88.8,251.2"/>
<line x1="87" y1="207" x2="85" y2="223"/>
<polyline points="83.1,217.7 85,223 88.1,218.3"/>
<line x1="87" y1="173" x2="85" y2="189"/>
<polyline points="83.1,183.7 85,189 88.1,184.3"/>
<line x1="87" y1="140" x2="85" y2="156"/>
<polyline points="83.1,150.7 85,156 88.1,151.3"/>
<line x1="87" y1="107" x2="85" y2="123"/>
<polyline points="83.1,117.7 85,123 88.1,118.3"/>
<line x1="87" y1="73" x2="84" y2="89"/>
<polyline points="82.5,83.6 84,89 87.4,84.5"/>
<line x1="87" y1="40" x2="84" y2="56"/>
<polyline points="82.5,50.6 84,56 87.4,51.5"/>
<line x1="133" y1="440" x2="149" y2="439"/>
<polyline points="144.2,441.8 149,439 143.9,436.8"/>
<line x1="133" y1="407" x2="148" y2="412"/>
<polyline points="142.5,412.8 148,412 144.0,408.0"/>
<line x1="133" y1="373" x2="144" y2="384"/>
<polyline points="138.7,382.2 144,384 142.2,378.7"/>
<line x1="133" y1="340" x2="139" y2="355"/>
<polyline points="134.8,351.3 139,355 139.5,349.4"/>
<line x1="133" y1="307" x2="134" y2="323"/>
<polyline points="131.2,318.2 134,323 136.2,317.9"/>
<line x1="133" y1="273" x2="131" y2="289"/>
<polyline points="129.1,283.7 131,289 134.1,284.3"/>
<line x1="133" y1="240" x2="129" y2="256"/>
<polyline points="127.8,250.5 129,256 132.6,251.8"/>
<line x1="133" y1="207" x2="128" y2="222"/>
<polyline points="127.2,216.5 128,222 132.0,218.0"/>
<line x1="133" y1="173" x2="127" y2="188"/>
<polyline points="126.5,182.4 127,188 131.2,184.3"/>
<line x1="133" y1="140" x2="127" y2="155"/>
<polyline points="126.5,149.4 127,155 131.2,151.3"/>
<line x1="133" y1="107" x2="126" y2="121"/>
<polyline points="126.0,115.4 126,121 130.5,117.6"/>
<line x1="133" y1="73" x2="126" y2="87"/>
<polyline points="126.0,81.4 126,87 130.5,83.6"/>
<line x1="133" y1="40" x2="126" y2="54"/>
<polyline points="126.0,48.4 126,54 130.5,50.6"/>
<line x1="180" y1="440" x2="196" y2="440"/>
<polyline points="191.0,442.5 196,440 191.0,437.5"/>
<line x1="180" y1="407" x2="196" y2="409"/>
<polyline points="190.7,410.9 196,409 191.3,405.9"/>
<line x1="180" y1="373" x2="195" y2="378"/>
<polyline points="189.5,378.8 195,378 191.0,374.0"/>
<line x1="180" y1="340" x2="192" y2="351"/>
<polyline points="186.6,349.5 192,351 190.0,345.8"/>
<line x1="180" y1="307" x2="183" y2="323"/>
<polyline points="179.6,318.5 183,323 184.5,317.6"/>
<line x1="180" y1="273" x2="175" y2="288"/>
<polyline points="174.2,282.5 175,288 179.0,284.0"/>
<line x1="180" y1="240" x2="171" y2="253"/>
<polyline points="171.8,247.5 171,253 175.9,250.3"/>
<line x1="180" y1="207" x2="170" y2="219"/>
<polyline points="171.3,213.6 170,219 175.1,216.8"/>
<line x1="180" y1="173" x2="169" y2="184"/>
<polyline points="170.8,178.7 169,184 174.3,182.2"/>
<line x1="180" y1="140" x2="168" y2="151"/>
<polyline points="170.0,145.8 168,151 173.4,149.5"/>
<line x1="180" y1="107" x2="168" y2="117"/>
<polyline points="170.2,111.9 168,117 173.4,115.7"/>
<line x1="180" y1="73" x2="167" y2="83"/>
<polyline points="169.4,78.0 167,83 172.5,81.9"/>
<line x1="180" y1="40" x2="167" y2="50"/>
<polyline points="169.4,45.0 167,50 172.5,48.9"/>
<line x1="227" y1="440" x2="243" y2="440"/>
<polyline points="238.0,442.5 243,440 238.0,437.5"/>
<line x1="227" y1="407" x2="243" y2="407"/>
<polyline points="238.0,409.5 243,407 238.0,404.5"/>
<line x1="227" y1="373" x2="243" y2="374"/>
<polyline points="237.9,376.2 243,374 238.2,371.2"/>
<line x1="227" y1="340" x2="243" y2="342"/>
<polyline points="237.7,343.9 243,342 238.3,338.9"/>
<line x1="227" y1="307" x2="239" y2="317"/>
<polyline points="233.6,315.7 239,317 236.8,311.9"/>
<line x1="227" y1="273" x2="213" y2="280"/>
<polyline points="216.4,275.5 213,280 218.6,280.0"/>
<line x1="227" y1="240" x2="212" y2="244"/>
<polyline points="216.2,240.3 212,244 217.5,245.1"/>
<line x1="227" y1="207" x2="211" y2="210"/>
<polyline points="215.5,206.6 211,210 216.4,211.5"/>
<line x1="227" y1="173" x2="211" y2="176"/>
<polyline points="215.5,172.6 211,176 216.4,177.5"/>
<line x1="227" y1="140" x2="211" y2="143"/>
<polyline points="215.5,139.6 211,143 216.4,144.5"/>
<line x1="227" y1="107" x2="211" y2="110"/>
<polyline points="215.5,106.6 211,110 216.4,111.5"/>
<line x1="227" y1="73" x2="211" y2="76"/>
<polyline points="215.5,72.6 211,76 216.4,77.5"/>
<line x1="227" y1="40" x2="211" y2="43"/>
<polyline points="215.5,39.6 211,43 216.4,44.5"/>
<line x1="273" y1="440" x2="289" y2="440"/>
<polyline points="284.0,442.5 289,440 284.0,437.5"/>
<line x1="273" y1="407" x2="289" y2="406"/>
<polyline points="284.2,408.8 289,406 283.9,403.8"/>
<line x1="273" y1="373" x2="289" y2="371"/>
<polyline points="284.3,374.1 289,371 283.7,369.1"/>
<line x1="273" y1="340" x2="288" y2="335"/>
<polyline points="284.0,339.0 288,335 282.5,334.2"/>
<line x1="273" y1="307" x2="280" y2="293"/>
<polyline points="280.0,298.6 280,293 275.5,296.4"/>
<line x1="273" y1="273" x2="262" y2="262"/>
<polyline points="267.3,263.8 262,262 263.8,267.3"/>
<line x1="273" y1="240" x2="259" y2="233"/>
<polyline points="264.6,233.0 259,233 262.4,237.5"/>
<line x1="273" y1="207" x2="258" y2="202"/>
<polyline points="263.5,201.2 258,202 262.0,206.0"/>
<line x1="273" y1="173" x2="258" y2="169"/>
<polyline points="263.5,167.9 258,169 262.2,172.7"/>
<line x1="273" y1="140" x2="257" y2="136"/>
<polyline points="262.5,134.8 257,136 261.2,139.6"/>
<line x1="273" y1="107" x2="257" y2="104"/>
<polyline points="262.4,102.5 257,104 261.5,107.4"/>
<line x1="273" y1="73" x2="257" y2="70"/>
<polyline points="262.4,68.5 257,70 261.5,73.4"/>
<line x1="273" y1="40" x2="257" y2="38"/>
<polyline points="262.3,36.1 257,38 261.7,41.1"/>
<line x1="320" y1="440" x2="336" y2="440"/>
<polyline points="331.0,442.5 336,440 331.0,437.5"/>
<line x1="320" y1="407" x2="336" y2="406"/>
<polyline points="331.2,408.8 336,406 330.9,403.8"/>
<line x1="320" y1="373" x2="335" y2="369"/>
<polyline points="330.8,372.7 335,369 329.5,367.9"/>
<line x1="320" y1="340" x2="333" y2="331"/>
<polyline points="330.3,335.9 333,331 327.5,331.8"/>
<line x1="320" y1="307" x2="324" y2="291"/>
<polyline points="325.2,296.5 324,291 320.4,295.2"/>
<line x1="320" y1="273" x2="313" y2="259"/>
<polyline points="317.5,262.4 313,259 313.0,264.6"/>
<line x1="320" y1="240" x2="309" y2="229"/>
<polyline points="314.3,230.8 309,229 310.8,234.3"/>
<line x1="320" y1="207" x2="307" y2="198"/>
<polyline points="312.5,198.8 307,198 309.7,202.9"/>
<line x1="320" y1="173" x2="306" y2="165"/>
<polyline points="311.6,165.3 306,165 309.1,169.7"/>
<line x1="320" y1="140" x2="306" y2="133"/>
<polyline points="311.6,133.0 306,133 309.4,137.5"/>
<line x1="320" y1="107" x2="305" y2="101"/>
<polyline points="310.6,100.5 305,101 308.7,105.2"/>
<line x1="320" y1="73" x2="305" y2="67"/>
<polyline points="310.6,66.5 305,67 308.7,71.2"/>
<line x1="320" y1="40" x2="305" y2="34"/>
<polyline points="310.6,33.5 305,34 308.7,38.2"/>
<line x1="367" y1="440" x2="383" y2="440"/>
<polyline points="378.0,442.5 383,440 378.0,437.5"/>
<line x1="367" y1="407" x2="383" y2="405"/>
<polyline points="378.3,408.1 383,405 377.7,403.1"/>
<line x1="367" y1="373" x2="382" y2="368"/>
<polyline points="378.0,372.0 382,368 376.5,367.2"/>
<line x1="367" y1="340" x2="379" y2="329"/>
<polyline points="377.0,334.2 379,329 373.6,330.5"/>
<line x1="367" y1="307" x2="370" y2="291"/>
<polyline points="371.5,296.4 370,291 366.6,295.5"/>
<line x1="367" y1="273" x2="362" y2="258"/>
<polyline points="366.0,262.0 362,258 361.2,263.5"/>
<line x1="367" y1="240" x2="357" y2="227"/>
<polyline points="362.0,229.4 357,227 358.1,232.5"/>
<line x1="367" y1="207" x2="356" y2="196"/>
<polyline points="361.3,197.8 356,196 357.8,201.3"/>
<line x1="367" y1="173" x2="354" y2="163"/>
<polyline points="359.5,164.1 354,163 356.4,168.0"/>
<line x1="367" y1="140" x2="354" y2="131"/>
<polyline points="359.5,131.8 354,131 356.7,135.9"/>
<line x1="367" y1="107" x2="353" y2="99"/>
<polyline points="358.6,99.3 353,99 356.1,103.7"/>
<line x1="367" y1="73" x2="353" y2="65"/>
<polyline points="358.6,65.3 353,65 356.1,69.7"/>
<line x1="367" y1="40" x2="353" y2="33"/>
<polyline points="358.6,33.0 353,33 356.4,37.5"/>
<line x1="413" y1="440" x2="429" y2="440"/>
<polyline points="424.0,442.5 429,440 424.0,437.5"/>
<line x1="413" y1="407" x2="429" y2="405"/>
<polyline points="424.3,408.1 429,405 423.7,403.1"/>
<line x1="413" y1="373" x2="428" y2="367"/>
<polyline points="424.3,371.2 428,367 422.4,366.5"/>
<line x1="413" y1="340" x2="424" y2="328"/>
<polyline points="422.5,333.4 424,328 418.8,330.0"/>
<line x1="413" y1="307" x2="416" y2="291"/>
<polyline points="417.5,296.4 416,291 412.6,295.5"/>
<line x1="413" y1="273" x2="408" y2="258"/>
<polyline points="412.0,262.0 408,258 407.2,263.5"/>
<line x1="413" y1="240" x2="405" y2="226"/>
<polyline points="409.7,229.1 405,226 405.3,231.6"/>
<line x1="413" y1="207" x2="403" y2="195"/>
<polyline points="408.1,197.2 403,195 404.3,200.4"/>
<line x1="413" y1="173" x2="401" y2="162"/>
<polyline points="406.4,163.5 401,162 403.0,167.2"/>
<line x1="413" y1="140" x2="401" y2="130"/>
<polyline points="406.4,131.3 401,130 403.2,135.1"/>
<line x1="413" y1="107" x2="400" y2="97"/>
<polyline points="405.5,98.1 400,97 402.4,102.0"/>
<line x1="413" y1="73" x2="400" y2="64"/>
<polyline points="405.5,64.8 400,64 402.7,68.9"/>
<line x1="413" y1="40" x2="400" y2="31"/>
<polyline points="405.5,31.8 400,31 402.7,35.9"/>
<line x1="460" y1="440" x2="476" y2="440"/>
<polyline points="471.0,442.5 476,440 471.0,437.5"/>
<line x1="460" y1="407" x2="476" y2="405"/>
<polyline points="471.3,408.1 476,405 470.7,403.1"/>
<line x1="460" y1="373" x2="475" y2="366"/>
<polyline points="471.5,370.4 475,366 469.4,365.8"/>
<line x1="460" y1="340" x2="470" y2="328"/>
<polyline points="468.7,333.4 470,328 464.9,330.2"/>
<line x1="460" y1="307" x2="462" y2="291"/>
<polyline points="463.9,296.3 462,291 458.9,295.7"/>
<line x1="460" y1="273" x2="456" y2="258"/>
<polyline points="459.7,262.2 456,258 454.9,263.5"/>
<line x1="460" y1="240" x2="452" y2="226"/>
<polyline points="456.7,229.1 452,226 452.3,231.6"/>
<line x1="460" y1="207" x2="450" y2="194"/>
<polyline points="455.0,196.4 450,194 451.1,199.5"/>
<line x1="460" y1="173" x2="449" y2="161"/>
<polyline points="454.2,163.0 449,161 450.5,166.4"/>
<line x1="460" y1="140" x2="448" y2="129"/>
<polyline points="453.4,130.5 448,129 450.0,134.2"/>
<line x1="460" y1="107" x2="448" y2="97"/>
<polyline points="453.4,98.3 448,97 450.2,102.1"/>
<line x1="460" y1="73" x2="447" y2="63"/>
<polyline points="452.5,64.1 447,63 449.4,68.0"/>
<line x1="460" y1="40" x2="447" y2="31"/>
<polyline points="452.5,31.8 447,31 449.7,35.9"/>
<line x1="507" y1="440" x2="523" y2="440"/>
<polyline points="518.0,442.5 523,440 518.0,437.5"/>
<line x1="507" y1="407" x2="523" y2="404"/>
<polyline points="518.5,407.4 523,404 517.6,402.5"/>
<line x1="507" y1="373" x2="521" y2="366"/>
<polyline points="517.6,370.5 521,366 515.4,366.0"/>
<line x1="507" y1="340" x2="517" y2="327"/>
<polyline points="515.9,332.5 517,327 512.0,329.4"/>
<line x1="507" y1="307" x2="509" y2="291"/>
<polyline points="510.9,296.3 509,291 505.9,295.7"/>
<line x1="507" y1="273" x2="503" y2="257"/>
<polyline points="506.6,261.2 503,257 501.8,262.5"/>
<line x1="507" y1="240" x2="500" y2="226"/>
<polyline points="504.5,229.4 500,226 500.0,231.6"/>
<line x1="507" y1="207" x2="498" y2="194"/>
<polyline points="502.9,196.7 498,194 498.8,199.5"/>
<line x1="507" y1="173" x2="497" y2="161"/>
<polyline points="502.1,163.2 497,161 498.3,166.4"/>
<line x1="507" y1="140" x2="496" y2="129"/>
<polyline points="501.3,130.8 496,129 497.8,134.3"/>
<line x1="507" y1="107" x2="495" y2="96"/>
<polyline points="500.4,97.5 495,96 497.0,101.2"/>
<line x1="507" y1="73" x2="495" y2="63"/>
<polyline points="500.4,64.3 495,63 497.2,68.1"/>
<line x1="507" y1="40" x2="495" y2="30"/>
<polyline points="500.4,31.3 495,30 497.2,35.1"/>
<line x1="553" y1="440" x2="569" y2="440"/>
<polyline points="564.0,442.5 569,440 564.0,437.5"/>
<line x1="553" y1="407" x2="569" y2="404"/>
<polyline points="564.5,407.4 569,404 563.6,402.5"/>
<line x1="553" y1="373" x2="567" y2="366"/>
<polyline points="563.6,370.5 567,366 561.4,366.0"/>
<line x1="553" y1="340" x2="562" y2="327"/>
<polyline points="561.2,332.5 562,327 557.1,329.7"/>
<line x1="553" y1="307" x2="555" y2="291"/>
<polyline points="556.9,296.3 555,291 551.9,295.7"/>
<line x1="553" y1="273" x2="549" y2="257"/>
<polyline points="552.6,261.2 549,257 547.8,262.5"/>
<line x1="553" y1="240" x2="546" y2="226"/>
<polyline points="550.5,229.4 546,226 546.0,231.6"/>
<line x1="553" y1="207" x2="544" y2="194"/>
<polyline points="548.9,196.7 544,194 544.8,199.5"/>
<line x1="553" y1="173" x2="543" y2="160"/>
<polyline points="548.0,162.4 543,160 544.1,165.5"/>
<line x1="553" y1="140" x2="542" y2="128"/>
<polyline points="547.2,130.0 542,128 543.5,133.4"/>
<line x1="553" y1="107" x2="542" y2="96"/>
<polyline points="547.3,97.8 542,96 543.8,101.3"/>
<line x1="553" y1="73" x2="541" y2="62"/>
<polyline points="546.4,63.5 541,62 543.0,67.2"/>
<line x1="553" y1="40" x2="541" y2="30"/>
<polyline points="546.4,31.3 541,30 543.2,35.1"/>
<line x1="600" y1="440" x2="616" y2="440"/>
<polyline points="611.0,442.5 616,440 611.0,437.5"/>
<line x1="600" y1="407" x2="616" y2="404"/>
<polyline points="611.5,407.4 616,404 610.6,402.5"/>
<line x1="600" y1="373" x2="614" y2="365"/>
<polyline points="610.9,369.7 614,365 608.4,365.3"/>
<line x1="600" y1="340" x2="609" y2="327"/>
<polyline points="608.2,332.5 609,327 604.1,329.7"/>
<line x1="600" y1="307" x2="602" y2="291"/>
<polyline points="603.9,296.3 602,291 598.9,295.7"/>
<line x1="600" y1="273" x2="597" y2="257"/>
<polyline points="600.4,261.5 597,257 595.5,262.4"/>
<line x1="600" y1="240" x2="593" y2="225"/>
<polyline points="597.4,228.5 593,225 592.8,230.6"/>
<line x1="600" y1="207" x2="592" y2="193"/>
<polyline points="596.7,196.1 592,193 592.3,198.6"/>
<line x1="600" y1="173" x2="590" y2="160"/>
<polyline points="595.0,162.4 590,160 591.1,165.5"/>
<line x1="600" y1="140" x2="590" y2="128"/>
<polyline points="595.1,130.2 590,128 591.3,133.4"/>
<line x1="600" y1="107" x2="589" y2="95"/>
<polyline points="594.2,97.0 589,95 590.5,100.4"/>
<line x1="600" y1="73" x2="589" y2="62"/>
<polyline points="594.3,63.8 589,62 590.8,67.3"/>
<line x1="600" y1="40" x2="588" y2="29"/>
<polyline points="593.4,30.5 588,29 590.0,34.2"/>
</g>
<g fill="#50e678">
<circle cx="238" cy="325" r="1.6"/>
<circle cx="239" cy="325" r="1.6"/>
<circle cx="241" cy="324" r="1.6"/>
<circle cx="242" cy="324" r="1.6"/>
<circle cx="243" cy="324" r="1.6"/>
<circle cx="244" cy="324" r="1.6"/>
<circle cx="245" cy="324" r="1.6"/>
<circle cx="247" cy="324" r="1.6"/>
<circle cx="248" cy="324" r="1.6"/>
<circle cx="249" cy="324" r="1.6"/>
<circle cx="250" cy="323" r="1.6"/>
<circle cx="252" cy="323" r="1.6"/>
<circle cx="253" cy="323" r="1.6"/>
<circle cx="254" cy="323" r="1.6"/>
<circle cx="255" cy="322" r="1.6"/>
<circle cx="256" cy="322" r="1.6"/>
<circle cx="258" cy="322" r="1.6"/>
<circle cx="259" cy="321" r="1.6"/>
<circle cx="260" cy="321" r="1.6"/>
<circle cx="261" cy="320" r="1.6"/>
<circle cx="262" cy="320" r="1.6"/>
<circle cx="263" cy="319" r="1.6"/>
<circle cx="265" cy="319" r="1.6"/>
<circle cx="266" cy="318" r="1.6"/>
<circle cx="267" cy="318" r="1.6"/>
<circle cx="268" cy="317" r="1.6"/>
<circle cx="269" cy="317" r="1.6"/>
<circle cx="270" cy="316" r="1.6"/>
<circle cx="271" cy="315" r="1.6"/>
<circle cx="272" cy="315" r="1.6"/>
<circle cx="273" cy="314" r="1.6"/>
<circle cx="274" cy="313" r="1.6"/>
<circle cx="274" cy="313" r="1.6"/>
<circle cx="275" cy="312" r="1.6"/>
<circle cx="276" cy="311" r="1.6"/>
<circle cx="277" cy="310" r="1.6"/>
<circle cx="277" cy="310" r="1.6"/>
<circle cx="278" cy="309" r="1.6"/>
<circle cx="279" cy="308" r="1.6"/>
<circle cx="279" cy="307" r="1.6"/>
<circle cx="280" cy="306" r="1.6"/>
<circle cx="280" cy="305" r="1.6"/>
<circle cx="281" cy="304" r="1.6"/>
<circle cx="281" cy="303" r="1.6"/>
<circle cx="282" cy="303" r="1.6"/>
<circle cx="282" cy="302" r="1.6"/>
<circle cx="282" cy="301" r="1.6"/>
<circle cx="282" cy="300" r="1.6"/>
<circle cx="282" cy="299" r="1.6"/>
<circle cx="283" cy="298" r="1.6"/>
<circle cx="283" cy="297" r="1.6"/>
<circle cx="283" cy="296" r="1.6"/>
<circle cx="283" cy="295" r="1.6"/>
<circle cx="283" cy="294" r="1.6"/>
<circle cx="282" cy="293" r="1.6"/>
<circle cx="282" cy="292" r="1.6"/>
<circle cx="282" cy="291" r="1.6"/>
<circle cx="282" cy="290" r="1.6"/>
<circle cx="281" cy="289" r="1.6"/>
<circle cx="281" cy="288" r="1.6"/>
<circle cx="280" cy="287" r="1.6"/>
<circle cx="280" cy="286" r="1.6"/>
<circle cx="279" cy="285" r="1.6"/>
<circle cx="279" cy="284" r="1.6"/>
<circle cx="278" cy="283" r="1.6"/>
<circle cx="277" cy="282" r="1.6"/>
<circle cx="276" cy="281" r="1.6"/>
<circle cx="275" cy="280" r="1.6"/>
<circle cx="275" cy="279" r="1.6"/>
<circle cx="274" cy="278" r="1.6"/>
<circle cx="273" cy="277" r="1.6"/>
<circle cx="272" cy="276" r="1.6"/>
<circle cx="271" cy="275" r="1.6"/>
<circle cx="270" cy="274" r="1.6"/>
<circle cx="269" cy="274" r="1.6"/>
<circle cx="267" cy="273" r="1.6"/>
<circle cx="266" cy="272" r="1.6"/>
<circle cx="265" cy="271" r="1.6"/>
<circle cx="264" cy="271" r="1.6"/>
<circle cx="262" cy="270" r="1.6"/>
<circle cx="261" cy="269" r="1.6"/>
<circle cx="260" cy="269" r="1.6"/>
<circle cx="258" cy="268" r="1.6"/>
<circle cx="257" cy="268" r="1.6"/>
<circle cx="256" cy="267" r="1.6"/>
<circle cx="254" cy="267" r="1.6"/>
<circle cx="253" cy="266" r="1.6"/>
<circle cx="252" cy="266" r="1.6"/>
<circle cx="250" cy="266" r="1.6"/>
<circle cx="249" cy="266" r="1.6"/>
<circle cx="247" cy="265" r="1.6"/>
<circle cx="246" cy="265" r="1.6"/>
<circle cx="245" cy="265" r="1.6"/>
<circle cx="243" cy="265" r="1.6"/>
<circle cx="242" cy="265" r="1.6"/>
<circle cx="240" cy="265" r="1.6"/>
<circle cx="239" cy="265" r="1.6"/>
<circle cx="237" cy="265" r="1.6"/>
<circle cx="236" cy="265" r="1.6"/>
<circle cx="235" cy="265" r="1.6"/>
<circle cx="233" cy="265" r="1.6"/>
<circle cx="232" cy="265" r="1.6"/>
<circle cx="231" cy="265" r="1.6"/>
<circle cx="229" cy="265" r="1.6"/>
<circle cx="228" cy="266" r="1.6"/>
<circle cx="227" cy="266" r="1.6"/>
<circle cx="226" cy="266" r="1.6"/>
<circle cx="224" cy="267" r="1.6"/>
<circle cx="223" cy="267" r="1.6"/>
<circle cx="222" cy="268" r="1.6"/>
<circle cx="221" cy="268" r="1.6"/>
<circle cx="220" cy="269" r="1.6"/>
<circle cx="219" cy="269" r="1.6"/>
<circle cx="218" cy="270" r="1.6"/>
<circle cx="216" cy="270" r="1.6"/>
<circle cx="215" cy="271" r="1.6"/>
<circle cx="214" cy="272" r="1.6"/>
<circle cx="214" cy="272" r="1.6"/>
<circle cx="213" cy="273" r="1.6"/>
<circle cx="212" cy="274" r="1.6"/>
<circle cx="211" cy="274" r="1.6"/>
<circle cx="210" cy="275" r="1.6"/>
<circle cx="209" cy="276" r="1.6"/>
<circle cx="208" cy="277" r="1.6"/>
<circle cx="208" cy="277" r="1.6"/>
<circle cx="207" cy="278" r="1.6"/>
<circle cx="206" cy="279" r="1.6"/>
<circle cx="206" cy="280" r="1.6"/>
<circle cx="205" cy="281" r="1.6"/>
<circle cx="205" cy="281" r="1.6"/>
<circle cx="204" cy="282" r="1.6"/>
<circle cx="203" cy="283" r="1.6"/>
<circle cx="203" cy="284" r="1.6"/>
<circle cx="203" cy="285" r="1.6"/>
<circle cx="202" cy="286" r="1.6"/>
<circle cx="202" cy="287" r="1.6"/>
<circle cx="201" cy="288" r="1.6"/>
<circle cx="201" cy="288" r="1.6"/>
<circle cx="201" cy="289" r="1.6"/>
<circle cx="201" cy="290" r="1.6"/>
<circle cx="200" cy="291" r="1.6"/>
<circle cx="200" cy="292" r="1.6"/>
<circle cx="200" cy="293" r="1.6"/>
<circle cx="200" cy="294" r="1.6"/>
<circle cx="200" cy="295" r="1.6"/>
<circle cx="200" cy="296" r="1.6"/>
<circle cx="200" cy="296" r="1.6"/>
<circle cx="200" cy="297" r="1.6"/>
<circle cx="200" cy="298" r="1.6"/>
<circle cx="200" cy="299" r="1.6"/>
<circle cx="200" cy="300" r="1.6"/>
<circle cx="200" cy="301" r="1.6"/>
<circle cx="200" cy="302" r="1.6"/>
<circle cx="200" cy="302" r="1.6"/>
<circle cx="200" cy="303" r="1.6"/>
<circle cx="201" cy="304" r="1.6"/>
<circle cx="201" cy="305" r="1.6"/>
<circle cx="201" cy="306" r="1.6"/>
<circle cx="201" cy="306" r="1.6"/>
<circle cx="202" cy="307" r="1.6"/>
<circle cx="202" cy="308" r="1.6"/>
<circle cx="203" cy="309" r="1.6"/>
<circle cx="203" cy="309" r="1.6"/>
<circle cx="203" cy="310" r="1.6"/>
<circle cx="204" cy="311" r="1.6"/>
<circle cx="204" cy="312" r="1.6"/>
<circle cx="205" cy="312" r="1.6"/>
<circle cx="206" cy="313" r="1.6"/>
<circle cx="206" cy="313" r="1.6"/>
<circle cx="207" cy="314" r="1.6"/>
<circle cx="207" cy="315" r="1.6"/>
<circle cx="208" cy="315" r="1.6"/>
<circle cx="209" cy="316" r="1.6"/>
<circle cx="209" cy="316" r="1.6"/>
<circle cx="210" cy="317" r="1.6"/>
<circle cx="211" cy="318" r="1.6"/>
<circle cx="212" cy="318" r="1.6"/>
<circle cx="212" cy="319" r="1.6"/>
<circle cx="213" cy="319" r="1.6"/>
<circle cx="214" cy="319" r="1.6"/>
<circle cx="215" cy="320" r="1.6"/>
<circle cx="216" cy="320" r="1.6"/>
<circle cx="217" cy="321" r="1.6"/>
<circle cx="218" cy="321" r="1.6"/>
<circle cx="219" cy="321" r="1.6"/>
<circle cx="220" cy="322" r="1.6"/>
<circle cx="221" cy="322" r="1.6"/>
<circle cx="222" cy="322" r="1.6"/>
<circle cx="223" cy="323" r="1.6"/>
<circle cx="224" cy="323" r="1.6"/>
<circle cx="225" cy="323" r="1.6"/>
<circle cx="226" cy="323" r="1.6"/>
<circle cx="227" cy="324" r="1.6"/>
<circle cx="228" cy="324" r="1.6"/>
<circle cx="229" cy="324" r="1.6"/>
<circle cx="230" cy="324" r="1.6"/>
<circle cx="231" cy="324" r="1.6"/>
<circle cx="233" cy="324" r="1.6"/>
<circle cx="234" cy="324" r="1.6"/>
<circle cx="235" cy="325" r="1.6"/>
<circle cx="236" cy="325" r="1.6"/>
<circle cx="237" cy="325" r="1.6"/>
<circle cx="238" cy="325" r="1.6"/>
<circle cx="240" cy="325" r="1.6"/>
<circle cx="241" cy="325" r="1.6"/>
<circle cx="242" cy="324" r="1.6"/>
<circle cx="243" cy="324" r="1.6"/>
<circle cx="245" cy="324" r="1.6"/>
<circle cx="246" cy="324" r="1.6"/>
<circle cx="247" cy="324" r="1.6"/>
<circle cx="248" cy="324" r="1.6"/>
<circle cx="249" cy="324" r="1.6"/>
<circle cx="251" cy="323" r="1.6"/>
<circle cx="252" cy="323" r="1.6"/>
<circle cx="253" cy="323" r="1.6"/>
<circle cx="254" cy="323" r="1.6"/>
<circle cx="256" cy="322" r="1.6"/>
<circle cx="257" cy="322" r="1.6"/>
<circle cx="258" cy="321" r="1.6"/>
<circle cx="259" cy="321" r="1.6"/>
<circle cx="260" cy="321" r="1.6"/>
<circle cx="261" cy="320" r="1.6"/>
<circle cx="263" cy="320" r="1.6"/>
<circle cx="264" cy="319" r="1.6"/>
<circle cx="265" cy="319" r="1.6"/>
<circle cx="266" cy="318" r="1.6"/>
<circle cx="267" cy="318" r="1.6"/>
<circle cx="268" cy="317" r="1.6"/>
<circle cx="269" cy="317" r="1.6"/>
<circle cx="270" cy="316" r="1.6"/>
<circle cx="271" cy="315" r="1.6"/>
<circle cx="272" cy="315" r="1.6"/>
<circle cx="273" cy="314" r="1.6"/>
<circle cx="274" cy="313" r="1.6"/>
<circle cx="275" cy="313" r="1.6"/>
<circle cx="275" cy="312" r="1.6"/>
<circle cx="276" cy="311" r="1.6"/>
<circle cx="277" cy="310" r="1.6"/>
<circle cx="278" cy="309" r="1.6"/>
<circle cx="278" cy="309" r="1.6"/>
<circle cx="279" cy="308" r="1.6"/>
<circle cx="279" cy="307" r="1.6"/>
<circle cx="280" cy="306" r="1.6"/>
<circle cx="281" cy="305" r="1.6"/>
<circle cx="281" cy="304" r="1.6"/>
<circle cx="281" cy="303" r="1.6"/>
<circle cx="282" cy="302" r="1.6"/>
<circle cx="282" cy="301" r="1.6"/>
<circle cx="282" cy="300" r="1.6"/>
<circle cx="282" cy="300" r="1.6"/>
<circle cx="283" cy="299" r="1.6"/>
<circle cx="283" cy="298" r="1.6"/>
<circle cx="283" cy="297" r="1.6"/>
<circle cx="283" cy="296" r="1.6"/>
<circle cx="283" cy="295" r="1.6"/>
<circle cx="283" cy="293" r="1.6"/>
<circle cx="282" cy="292" r="1.6"/>
<circle cx="282" cy="291" r="1.6"/>
<circle cx="282" cy="290" r="1.6"/>
<circle cx="282" cy="289" r="1.6"/>
<circle cx="281" cy="288" r="1.6"/>
<circle cx="281" cy="287" r="1.6"/>
<circle cx="280" cy="286" r="1.6"/>
<circle cx="280" cy="285" r="1.6"/>
<circle cx="279" cy="284" r="1.6"/>
<circle cx="279" cy="283" r="1.6"/>
<circle cx="278" cy="282" r="1.6"/>
<circle cx="277" cy="281" r="1.6"/>
<circle cx="276" cy="280" r="1.6"/>
<circle cx="275" cy="279" r="1.6"/>
<circle cx="275" cy="279" r="1.6"/>
<circle cx="274" cy="278" r="1.6"/>
<circle cx="273" cy="277" r="1.6"/>
<circle cx="272" cy="276" r="1.6"/>
<circle cx="271" cy="275" r="1.6"/>
<circle cx="269" cy="274" r="1.6"/>
<circle cx="268" cy="273" r="1.6"/>
<circle cx="267" cy="273" r="1.6"/>
<circle cx="266" cy="272" r="1.6"/>
<circle cx="265" cy="271" r="1.6"/>
<circle cx="264" cy="271" r="1.6"/>
<circle cx="262" cy="270" r="1.6"/>
<circle cx="261" cy="269" r="1.6"/>
<circle cx="260" cy="269" r="1.6"/>
<circle cx="258" cy="268" r="1.6"/>
<circle cx="257" cy="268" r="1.6"/>
<circle cx="256" cy="267" r="1.6"/>
<circle cx="254" cy="267" r="1.6"/>
<circle cx="253" cy="266" r="1.6"/>
<circle cx="251" cy="266" r="1.6"/>
<circle cx="250" cy="266" r="1.6"/>
<circle cx="249" cy="265" r="1.6"/>
<circle cx="247" cy="265" r="1.6"/>
<circle cx="246" cy="265" r="1.6"/>
<circle cx="244" cy="265" r="1.6"/>
<circle cx="243" cy="265" r="1.6"/>
<circle cx="241" cy="265" r="1.6"/>
<circle cx="240" cy="265" r="1.6"/>
<circle cx="239" cy="264" r="1.6"/>
<circle cx="237" cy="265" r="1.6"/>
<circle cx="236" cy="265" r="1.6"/>
</g>
<g fill="#faaa32">
<circle cx="238" cy="366" r="1.6"/>
<circle cx="241" cy="366" r="1.6"/>
<circle cx="244" cy="366" r="1.6"/>
<circle cx="247" cy="366" r="1.6"/>
<circle cx="251" cy="366" r="1.6"/>
<circle cx="254" cy="366" r="1.6"/>
<circle cx="257" cy="366" r="1.6"/>
<circle cx="260" cy="365" r="1.6"/>
<circle cx="264" cy="365" r="1.6"/>
<circle cx="267" cy="365" r="1.6"/>
<circle cx="270" cy="364" r="1.6"/>
<circle cx="274" cy="364" r="1.6"/>
<circle cx="277" cy="364" r="1.6"/>
<circle cx="281" cy="363" r="1.6"/>
<circle cx="284" cy="363" r="1.6"/>
<circle cx="288" cy="362" r="1.6"/>
<circle cx="291" cy="361" r="1.6"/>
<circle cx="295" cy="361" r="1.6"/>
<circle cx="298" cy="360" r="1.6"/>
<circle cx="302" cy="359" r="1.6"/>
<circle cx="305" cy="358" r="1.6"/>
<circle cx="309" cy="357" r="1.6"/>
<circle cx="313" cy="356" r="1.6"/>
<circle cx="316" cy="355" r="1.6"/>
<circle cx="320" cy="354" r="1.6"/>
<circle cx="323" cy="353" r="1.6"/>
<circle cx="327" cy="352" r="1.6"/>
<circle cx="330" cy="351" r="1.6"/>
<circle cx="334" cy="349" r="1.6"/>
<circle cx="337" cy="348" r="1.6"/>
<circle cx="341" cy="347" r="1.6"/>
<circle cx="344" cy="345" r="1.6"/>
<circle cx="347" cy="343" r="1.6"/>
<circle cx="350" cy="342" r="1.6"/>
<circle cx="353" cy="340" r="1.6"/>
<circle cx="356" cy="338" r="1.6"/>
<circle cx="359" cy="336" r="1.6"/>
<circle cx="362" cy="334" r="1.6"/>
<circle cx="365" cy="332" r="1.6"/>
<circle cx="367" cy="330" r="1.6"/>
<circle cx="370" cy="328" r="1.6"/>
<circle cx="372" cy="325" r="1.6"/>
<circle cx="374" cy="323" r="1.6"/>
<circle cx="376" cy="320" r="1.6"/>
<circle cx="378" cy="318" r="1.6"/>
<circle cx="379" cy="315" r="1.6"/>
<circle cx="381" cy="312" r="1.6"/>
<circle cx="382" cy="309" r="1.6"/>
<circle cx="383" cy="306" r="1.6"/>
<circle cx="384" cy="303" r="1.6"/>
<circle cx="384" cy="300" r="1.6"/>
<circle cx="384" cy="297" r="1.6"/>
<circle cx="384" cy="294" r="1.6"/>
<circle cx="384" cy="290" r="1.6"/>
<circle cx="384" cy="287" r="1.6"/>
<circle cx="383" cy="283" r="1.6"/>
<circle cx="382" cy="280" r="1.6"/>
<circle cx="381" cy="276" r="1.6"/>
<circle cx="379" cy="273" r="1.6"/>
<circle cx="377" cy="269" r="1.6"/>
<circle cx="375" cy="265" r="1.6"/>
<circle cx="373" cy="261" r="1.6"/>
<circle cx="370" cy="258" r="1.6"/>
<circle cx="368" cy="254" r="1.6"/>
<circle cx="364" cy="250" r="1.6"/>
<circle cx="361" cy="247" r="1.6"/>
<circle cx="358" cy="243" r="1.6"/>
<circle cx="354" cy="239" r="1.6"/>
<circle cx="350" cy="236" r="1.6"/>
<circle cx="346" cy="232" r="1.6"/>
<circle cx="341" cy="229" r="1.6"/>
<circle cx="337" cy="226" r="1.6"/>
<circle cx="332" cy="222" r="1.6"/>
<circle cx="327" cy="219" r="1.6"/>
<circle cx="322" cy="216" r="1.6"/>
<circle cx="318" cy="213" r="1.6"/>
<circle cx="312" cy="211" r="1.6"/>
<circle cx="307" cy="208" r="1.6"/>
<circle cx="302" cy="206" r="1.6"/>
<circle cx="297" cy="204" r="1.6"/>
<circle cx="292" cy="202" r="1.6"/>
<circle cx="286" cy="200" r="1.6"/>
<circle cx="281" cy="198" r="1.6"/>
<circle cx="276" cy="197" r="1.6"/>
<circle cx="271" cy="195" r="1.6"/>
<circle cx="266" cy="194" r="1.6"/>
<circle cx="261" cy="194" r="1.6"/>
<circle cx="256" cy="193" r="1.6"/>
<circle cx="251" cy="192" r="1.6"/>
<circle cx="246" cy="192" r="1.6"/>
<circle cx="241" cy="192" r="1.6"/>
<circle cx="237" cy="192" r="1.6"/>
<circle cx="232" cy="192" r="1.6"/>
<circle cx="228" cy="193" r="1.6"/>
<circle cx="223" cy="193" r="1.6"/>
<circle cx="219" cy="194" r="1.6"/>
<circle cx="215" cy="195" r="1.6"/>
<circle cx="211" cy="196" r="1.6"/>
<circle cx="208" cy="197" r="1.6"/>
<circle cx="204" cy="198" r="1.6"/>
<circle cx="201" cy="200" r="1.6"/>
<circle cx="197" cy="201" r="1.6"/>
<circle cx="194" cy="203" r="1.6"/>
<circle cx="191" cy="205" r="1.6"/>
<circle cx="188" cy="207" r="1.6"/>
<circle cx="185" cy="209" r="1.6"/>
<circle cx="182" cy="211" r="1.6"/>
<circle cx="180" cy="213" r="1.6"/>
<circle cx="177" cy="215" r="1.6"/>
<circle cx="175" cy="217" r="1.6"/>
<circle cx="172" cy="220" r="1.6"/>
<circle cx="170" cy="222" r="1.6"/>
<circle cx="168" cy="225" r="1.6"/>
<circle cx="166" cy="227" r="1.6"/>
<circle cx="164" cy="230" r="1.6"/>
<circle cx="162" cy="232" r="1.6"/>
<circle cx="161" cy="235" r="1.6"/>
<circle cx="159" cy="237" r="1.6"/>
<circle cx="158" cy="240" r="1.6"/>
<circle cx="156" cy="242" r="1.6"/>
<circle cx="155" cy="245" r="1.6"/>
<circle cx="154" cy="248" r="1.6"/>
<circle cx="152" cy="250" r="1.6"/>
<circle cx="151" cy="253" r="1.6"/>
<circle cx="150" cy="255" r="1.6"/>
<circle cx="149" cy="258" r="1.6"/>
<circle cx="148" cy="261" r="1.6"/>
<circle cx="148" cy="263" r="1.6"/>
<circle cx="147" cy="266" r="1.6"/>
<circle cx="146" cy="268" r="1.6"/>
<circle cx="145" cy="271" r="1.6"/>
<circle cx="145" cy="273" r="1.6"/>
<circle cx="144" cy="276" r="1.6"/>
<circle cx="144" cy="278" r="1.6"/>
<circle cx="143" cy="281" r="1.6"/>
<circle cx="143" cy="283" r="1.6"/>
<circle cx="143" cy="285" r="1.6"/>
<circle cx="143" cy="288" r="1.6"/>
<circle cx="142" cy="290" r="1.6"/>
<circle cx="142" cy="292" r="1.6"/>
<circle cx="142" cy="295" r="1.6"/>
<circle cx="142" cy="297" r="1.6"/>
<circle cx="142" cy="299" r="1.6"/>
<circle cx="142" cy="301" r="1.6"/>
<circle cx="142" cy="303" r="1.6"/>
<circle cx="142" cy="305" r="1.6"/>
<circle cx="143" cy="307" r="1.6"/>
<circle cx="143" cy="309" r="1.6"/>
<circle cx="143" cy="311" r="1.6"/>
<circle cx="143" cy="313" r="1.6"/>
<circle cx="144" cy="315" r="1.6"/>
<circle cx="144" cy="317" r="1.6"/>
<circle cx="145" cy="319" r="1.6"/>
<circle cx="145" cy="320" r="1.6"/>
<circle cx="146" cy="322" r="1.6"/>
<circle cx="146" cy="324" r="1.6"/>
<circle cx="147" cy="326" r="1.6"/>
<circle cx="148" cy="327" r="1.6"/>
<circle cx="148" cy="329" r="1.6"/>
<circle cx="149" cy="330" r="1.6"/>
<circle cx="150" cy="332" r="1.6"/>
<circle cx="151" cy="333" r="1.6"/>
<circle cx="151" cy="335" r="1.6"/>
<circle cx="152" cy="336" r="1.6"/>
<circle cx="153" cy="338" r="1.6"/>
<circle cx="154" cy="339" r="1.6"/>
<circle cx="155" cy="340" r="1.6"/>
<circle cx="156" cy="341" r="1.6"/>
<circle cx="157" cy="343" r="1.6"/>
<circle cx="159" cy="344" r="1.6"/>
<circle cx="160" cy="345" r="1.6"/>
<circle cx="161" cy="346" r="1.6"/>
<circle cx="162" cy="347" r="1.6"/>
<circle cx="164" cy="348" r="1.6"/>
<circle cx="165" cy="349" r="1.6"/>
<circle cx="166" cy="350" r="1.6"/>
<circle cx="168" cy="351" r="1.6"/>
<circle cx="169" cy="352" r="1.6"/>
<circle cx="171" cy="353" r="1.6"/>
<circle cx="173" cy="354" r="1.6"/>
<circle cx="174" cy="355" r="1.6"/>
<circle cx="176" cy="356" r="1.6"/>
<circle cx="178" cy="357" r="1.6"/>
<circle cx="179" cy="357" r="1.6"/>
<circle cx="181" cy="358" r="1.6"/>
<circle cx="183" cy="359" r="1.6"/>
<circle cx="185" cy="359" r="1.6"/>
<circle cx="187" cy="360" r="1.6"/>
<circle cx="189" cy="361" r="1.6"/>
<circle cx="191" cy="361" r="1.6"/>
<circle cx="193" cy="362" r="1.6"/>
<circle cx="195" cy="362" r="1.6"/>
<circle cx="198" cy="363" r="1.6"/>
<circle cx="200" cy="363" r="1.6"/>
<circle cx="202" cy="364" r="1.6"/>
<circle cx="204" cy="364" r="1.6"/>
<circle cx="207" cy="364" r="1.6"/>
<circle cx="209" cy="365" r="1.6"/>
<circle cx="212" cy="365" r="1.6"/>
<circle cx="214" cy="365" r="1.6"/>
<circle cx="217" cy="366" r="1.6"/>
<circle cx="220" cy="366" r="1.6"/>
<circle cx="222" cy="366" r="1.6"/>
<circle cx="225" cy="366" r="1.6"/>
<circle cx="228" cy="366" r="1.6"/>
<circle cx="231" cy="366" r="1.6"/>
<circle cx="234" cy="366" r="1.6"/>
<circle cx="237" cy="366" r="1.6"/>
<circle cx="240" cy="366" r="1.6"/>
<circle cx="243" cy="366" r="1.6"/>
<circle cx="246" cy="366" r="1.6"/>
<circle cx="249" cy="366" r="1.6"/>
<circle cx="252" cy="366" r="1.6"/>
<circle cx="255" cy="366" r="1.6"/>
<circle cx="258" cy="366" r="1.6"/>
<circle cx="262" cy="365" r="1.6"/>
<circle cx="265" cy="365" r="1.6"/>
<circle cx="268" cy="365" r="1.6"/>
<circle cx="272" cy="364" r="1.6"/>
<circle cx="275" cy="364" r="1.6"/>
<circle cx="279" cy="363" r="1.6"/>
<circle cx="282" cy="363" r="1.6"/>
<circle cx="286" cy="362" r="1.6"/>
<circle cx="289" cy="362" r="1.6"/>
<circle cx="293" cy="361" r="1.6"/>
<circle cx="296" cy="360" r="1.6"/>
<circle cx="300" cy="360" r="1.6"/>
<circle cx="304" cy="359" r="1.6"/>
<circle cx="307" cy="358" r="1.6"/>
<circle cx="311" cy="357" r="1.6"/>
<circle cx="314" cy="356" r="1.6"/>
<circle cx="318" cy="355" r="1.6"/>
<circle cx="321" cy="354" r="1.6"/>
<circle cx="325" cy="353" r="1.6"/>
<circle cx="328" cy="351" r="1.6"/>
<circle cx="332" cy="350" r="1.6"/>
<circle cx="335" cy="349" r="1.6"/>
<circle cx="339" cy="347" r="1.6"/>
<circle cx="342" cy="346" r="1.6"/>
<circle cx="345" cy="344" r="1.6"/>
<circle cx="349" cy="343" r="1.6"/>
<circle cx="352" cy="341" r="1.6"/>
<circle cx="355" cy="339" r="1.6"/>
<circle cx="358" cy="337" r="1.6"/>
<circle cx="361" cy="335" r="1.6"/>
<circle cx="363" cy="333" r="1.6"/>
<circle cx="366" cy="331" r="1.6"/>
<circle cx="368" cy="329" r="1.6"/>
<circle cx="371" cy="327" r="1.6"/>
<circle cx="373" cy="324" r="1.6"/>
<circle cx="375" cy="322" r="1.6"/>
<circle cx="377" cy="319" r="1.6"/>
<circle cx="378" cy="316" r="1.6"/>
<circle cx="380" cy="314" r="1.6"/>
<circle cx="381" cy="311" r="1.6"/>
<circle cx="382" cy="308" r="1.6"/>
<circle cx="383" cy="305" r="1.6"/>
<circle cx="384" cy="302" r="1.6"/>
<circle cx="384" cy="299" r="1.6"/>
<circle cx="384" cy="295" r="1.6"/>
<circle cx="384" cy="292" r="1.6"/>
<circle cx="384" cy="289" r="1.6"/>
<circle cx="383" cy="285" r="1.6"/>
<circle cx="382" cy="282" r="1.6"/>
<circle cx="381" cy="278" r="1.6"/>
<circle cx="380" cy="274" r="1.6"/>
<circle cx="378" cy="271" r="1.6"/>
<circle cx="376" cy="267" r="1.6"/>
<circle cx="374" cy="263" r="1.6"/>
<circle cx="372" cy="260" r="1.6"/>
<circle cx="369" cy="256" r="1.6"/>
<circle cx="366" cy="252" r="1.6"/>
<circle cx="363" cy="249" r="1.6"/>
<circle cx="359" cy="245" r="1.6"/>
<circle cx="356" cy="241" r="1.6"/>
<circle cx="352" cy="238" r="1.6"/>
<circle cx="348" cy="234" r="1.6"/>
<circle cx="344" cy="231" r="1.6"/>
<circle cx="339" cy="227" r="1.6"/>
<circle cx="335" cy="224" r="1.6"/>
<circle cx="330" cy="221" r="1.6"/>
<circle cx="325" cy="218" r="1.6"/>
<circle cx="320" cy="215" r="1.6"/>
<circle cx="315" cy="212" r="1.6"/>
<circle cx="310" cy="210" r="1.6"/>
<circle cx="305" cy="207" r="1.6"/>
<circle cx="300" cy="205" r="1.6"/>
<circle cx="294" cy="203" r="1.6"/>
<circle cx="289" cy="201" r="1.6"/>
<circle cx="284" cy="199" r="1.6"/>
<circle cx="279" cy="198" r="1.6"/>
<circle cx="273" cy="196" r="1.6"/>
<circle cx="268" cy="195" r="1.6"/>
<circle cx="263" cy="194" r="1.6"/>
<circle cx="258" cy="193" r="1.6"/>
<circle cx="253" cy="193" r="1.6"/>
<circle cx="248" cy="192" r="1.6"/>
<circle cx="244" cy="192" r="1.6"/>
<circle cx="239" cy="192" r="1.6"/>
<circle cx="234" cy="192" r="1.6"/>
<circle cx="230" cy="192" r="1.6"/>
</g>
<g fill="#5ac8ff">
<circle cx="238" cy="401" r="1.6"/>
<circle cx="243" cy="401" r="1.6"/>
<circle cx="247" cy="401" r="1.6"/>
<circle cx="252" cy="401" r="1.6"/>
<circle cx="257" cy="401" r="1.6"/>
<circle cx="262" cy="401" r="1.6"/>
<circle cx="267" cy="401" r="1.6"/>
<circle cx="272" cy="400" r="1.6"/>
<circle cx="277" cy="400" r="1.6"/>
<circle cx="283" cy="400" r="1.6"/>
<circle cx="288" cy="400" r="1.6"/>
<circle cx="294" cy="399" r="1.6"/>
<circle cx="300" cy="399" r="1.6"/>
<circle cx="305" cy="399" r="1.6"/>
<circle cx="311" cy="398" r="1.6"/>
<circle cx="317" cy="398" r="1.6"/>
<circle cx="324" cy="397" r="1.6"/>
<circle cx="330" cy="397" r="1.6"/>
<circle cx="336" cy="396" r="1.6"/>
<circle cx="343" cy="395" r="1.6"/>
<circle cx="349" cy="395" r="1.6"/>
<circle cx="356" cy="394" r="1.6"/>
<circle cx="363" cy="393" r="1.6"/>
<circle cx="369" cy="392" r="1.6"/>
<circle cx="376" cy="391" r="1.6"/>
<circle cx="383" cy="390" r="1.6"/>
<circle cx="390" cy="389" r="1.6"/>
<circle cx="398" cy="388" r="1.6"/>
<circle cx="405" cy="386" r="1.6"/>
<circle cx="412" cy="385" r="1.6"/>
<circle cx="419" cy="383" r="1.6"/>
<circle cx="427" cy="382" r="1.6"/>
<circle cx="434" cy="380" r="1.6"/>
<circle cx="441" cy="378" r="1.6"/>
<circle cx="448" cy="376" r="1.6"/>
<circle cx="455" cy="374" r="1.6"/>
<circle cx="463" cy="372" r="1.6"/>
<circle cx="470" cy="369" r="1.6"/>
<circle cx="477" cy="367" r="1.6"/>
<circle cx="483" cy="364" r="1.6"/>
<circle cx="490" cy="361" r="1.6"/>
<circle cx="496" cy="358" r="1.6"/>
<circle cx="503" cy="355" r="1.6"/>
<circle cx="509" cy="351" r="1.6"/>
<circle cx="514" cy="347" r="1.6"/>
<circle cx="520" cy="343" r="1.6"/>
<circle cx="524" cy="339" r="1.6"/>
<circle cx="529" cy="334" r="1.6"/>
<circle cx="533" cy="330" r="1.6"/>
<circle cx="537" cy="324" r="1.6"/>
<circle cx="540" cy="319" r="1.6"/>
<circle cx="542" cy="313" r="1.6"/>
<circle cx="544" cy="307" r="1.6"/>
<circle cx="545" cy="301" r="1.6"/>
<circle cx="546" cy="294" r="1.6"/>
<circle cx="545" cy="287" r="1.6"/>
<circle cx="544" cy="279" r="1.6"/>
<circle cx="542" cy="272" r="1.6"/>
<circle cx="540" cy="264" r="1.6"/>
<circle cx="536" cy="255" r="1.6"/>
<circle cx="531" cy="247" r="1.6"/>
<circle cx="526" cy="238" r="1.6"/>
<circle cx="520" cy="229" r="1.6"/>
<circle cx="512" cy="220" r="1.6"/>
<circle cx="504" cy="210" r="1.6"/>
<circle cx="495" cy="201" r="1.6"/>
<circle cx="486" cy="191" r="1.6"/>
<circle cx="475" cy="182" r="1.6"/>
<circle cx="464" cy="173" r="1.6"/>
<circle cx="453" cy="164" r="1.6"/>
<circle cx="441" cy="155" r="1.6"/>
<circle cx="428" cy="146" r="1.6"/>
<circle cx="415" cy="138" r="1.6"/>
<circle cx="402" cy="130" r="1.6"/>
<circle cx="389" cy="122" r="1.6"/>
<circle cx="375" cy="115" r="1.6"/>
<circle cx="362" cy="109" r="1.6"/>
<circle cx="348" cy="103" r="1.6"/>
<circle cx="335" cy="98" r="1.6"/>
<circle cx="322" cy="93" r="1.6"/>
<circle cx="310" cy="89" r="1.6"/>
<circle cx="297" cy="86" r="1.6"/>
<circle cx="286" cy="83" r="1.6"/>
<circle cx="274" cy="81" r="1.6"/>
<circle cx="263" cy="80" r="1.6"/>
<circle cx="252" cy="79" r="1.6"/>
<circle cx="242" cy="79" r="1.6"/>
<circle cx="233" cy="79" r="1.6"/>
<circle cx="224" cy="80" r="1.6"/>
<circle cx="215" cy="81" r="1.6"/>
<circle cx="207" cy="83" r="1.6"/>
<circle cx="199" cy="85" r="1.6"/>
<circle cx="192" cy="88" r="1.6"/>
<circle cx="185" cy="91" r="1.6"/>
<circle cx="178" cy="94" r="1.6"/>
<circle cx="172" cy="98" r="1.6"/>
<circle cx="167" cy="102" r="1.6"/>
<circle cx="161" cy="106" r="1.6"/>
<circle cx="156" cy="110" r="1.6"/>
<circle cx="152" cy="115" r="1.6"/>
<circle cx="148" cy="120" r="1.6"/>
<circle cx="143" cy="124" r="1.6"/>
<circle cx="140" cy="129" r="1.6"/>
<circle cx="136" cy="135" r="1.6"/>
<circle cx="133" cy="140" r="1.6"/>
<circle cx="130" cy="145" r="1.6"/>
<circle cx="127" cy="150" r="1.6"/>
<circle cx="124" cy="155" r="1.6"/>
<circle cx="122" cy="161" r="1.6"/>
<circle cx="119" cy="166" r="1.6"/>
<circle cx="117" cy="171" r="1.6"/>
<circle cx="115" cy="177" r="1.6"/>
<circle cx="113" cy="182" r="1.6"/>
<circle cx="112" cy="187" r="1.6"/>
<circle cx="110" cy="192" r="1.6"/>
<circle cx="108" cy="197" r="1.6"/>
<circle cx="107" cy="202" r="1.6"/>
<circle cx="106" cy="207" r="1.6"/>
<circle cx="105" cy="212" r="1.6"/>
<circle cx="103" cy="217" r="1.6"/>
<circle cx="102" cy="222" r="1.6"/>
<circle cx="101" cy="227" r="1.6"/>
<circle cx="101" cy="231" r="1.6"/>
<circle cx="100" cy="236" r="1.6"/>
<circle cx="99" cy="241" r="1.6"/>
<circle cx="98" cy="245" r="1.6"/>
<circle cx="98" cy="249" r="1.6"/>
<circle cx="97" cy="254" r="1.6"/>
<circle cx="97" cy="258" r="1.6"/>
<circle cx="96" cy="262" r="1.6"/>
<circle cx="96" cy="266" r="1.6"/>
<circle cx="95" cy="270" r="1.6"/>
<circle cx="95" cy="274" r="1.6"/>
<circle cx="95" cy="277" r="1.6"/>
<circle cx="95" cy="281" r="1.6"/>
<circle cx="94" cy="285" r="1.6"/>
<circle cx="94" cy="288" r="1.6"/>
<circle cx="94" cy="292" r="1.6"/>
<circle cx="94" cy="295" r="1.6"/>
<circle cx="94" cy="298" r="1.6"/>
<circle cx="94" cy="302" r="1.6"/>
<circle cx="94" cy="305" r="1.6"/>
<circle cx="94" cy="308" r="1.6"/>
<circle cx="94" cy="311" r="1.6"/>
<circle cx="95" cy="314" r="1.6"/>
<circle cx="95" cy="317" r="1.6"/>
<circle cx="95" cy="319" r="1.6"/>
<circle cx="95" cy="322" r="1.6"/>
<circle cx="96" cy="325" r="1.6"/>
<circle cx="96" cy="327" r="1.6"/>
<circle cx="96" cy="330" r="1.6"/>
<circle cx="97" cy="332" r="1.6"/>
<circle cx="97" cy="335" r="1.6"/>
<circle cx="97" cy="337" r="1.6"/>
<circle cx="98" cy="339" r="1.6"/>
<circle cx="98" cy="341" r="1.6"/>
<circle cx="99" cy="343" r="1.6"/>
<circle cx="100" cy="346" r="1.6"/>
<circle cx="100" cy="348" r="1.6"/>
<circle cx="101" cy="350" r="1.6"/>
<circle cx="101" cy="351" r="1.6"/>
<circle cx="102" cy="353" r="1.6"/>
<circle cx="103" cy="355" r="1.6"/>
<circle cx="104" cy="357" r="1.6"/>
<circle cx="104" cy="359" r="1.6"/>
<circle cx="105" cy="360" r="1.6"/>
<circle cx="106" cy="362" r="1.6"/>
<circle cx="107" cy="364" r="1.6"/>
<circle cx="108" cy="365" r="1.6"/>
<circle cx="109" cy="367" r="1.6"/>
<circle cx="110" cy="368" r="1.6"/>
<circle cx="111" cy="369" r="1.6"/>
<circle cx="112" cy="371" r="1.6"/>
<circle cx="113" cy="372" r="1.6"/>
<circle cx="114" cy="373" r="1.6"/>
<circle cx="115" cy="375" r="1.6"/>
<circle cx="117" cy="376" r="1.6"/>
<circle cx="118" cy="377" r="1.6"/>
<circle cx="119" cy="378" r="1.6"/>
<circle cx="120" cy="379" r="1.6"/>
<circle cx="122" cy="380" r="1.6"/>
<circle cx="123" cy="381" r="1.6"/>
<circle cx="125" cy="382" r="1.6"/>
<circle cx="126" cy="383" r="1.6"/>
<circle cx="128" cy="384" r="1.6"/>
<circle cx="130" cy="385" r="1.6"/>
<circle cx="131" cy="386" r="1.6"/>
<circle cx="133" cy="387" r="1.6"/>
<circle cx="135" cy="388" r="1.6"/>
<circle cx="136" cy="389" r="1.6"/>
<circle cx="138" cy="389" r="1.6"/>
<circle cx="140" cy="390" r="1.6"/>
<circle cx="142" cy="391" r="1.6"/>
<circle cx="144" cy="391" r="1.6"/>
<circle cx="146" cy="392" r="1.6"/>
<circle cx="149" cy="393" r="1.6"/>
<circle cx="151" cy="393" r="1.6"/>
<circle cx="153" cy="394" r="1.6"/>
<circle cx="155" cy="395" r="1.6"/>
<circle cx="158" cy="395" r="1.6"/>
<circle cx="160" cy="396" r="1.6"/>
<circle cx="163" cy="396" r="1.6"/>
<circle cx="165" cy="397" r="1.6"/>
<circle cx="168" cy="397" r="1.6"/>
<circle cx="171" cy="397" r="1.6"/>
<circle cx="174" cy="398" r="1.6"/>
<circle cx="177" cy="398" r="1.6"/>
<circle cx="180" cy="399" r="1.6"/>
<circle cx="183" cy="399" r="1.6"/>
<circle cx="186" cy="399" r="1.6"/>
<circle cx="189" cy="400" r="1.6"/>
<circle cx="192" cy="400" r="1.6"/>
<circle cx="196" cy="400" r="1.6"/>
<circle cx="199" cy="400" r="1.6"/>
<circle cx="203" cy="400" r="1.6"/>
<circle cx="207" cy="401" r="1.6"/>
<circle cx="210" cy="401" r="1.6"/>
<circle cx="214" cy="401" r="1.6"/>
<circle cx="218" cy="401" r="1.6"/>
<circle cx="222" cy="401" r="1.6"/>
<circle cx="226" cy="401" r="1.6"/>
<circle cx="231" cy="401" r="1.6"/>
<circle cx="235" cy="401" r="1.6"/>
<circle cx="239" cy="401" r="1.6"/>
<circle cx="244" cy="401" r="1.6"/>
<circle cx="249" cy="401" r="1.6"/>
<circle cx="253" cy="401" r="1.6"/>
<circle cx="258" cy="401" r="1.6"/>
<circle cx="263" cy="401" r="1.6"/>
<circle cx="268" cy="401" r="1.6"/>
<circle cx="273" cy="400" r="1.6"/>
<circle cx="279" cy="400" r="1.6"/>
<circle cx="284" cy="400" r="1.6"/>
<circle cx="290" cy="400" r="1.6"/>
<circle cx="295" cy="399" r="1.6"/>
<circle cx="301" cy="399" r="1.6"/>
<circle cx="307" cy="399" r="1.6"/>
<circle cx="313" cy="398" r="1.6"/>
<circle cx="319" cy="398" r="1.6"/>
<circle cx="325" cy="397" r="1.6"/>
<circle cx="331" cy="396" r="1.6"/>
<circle cx="338" cy="396" r="1.6"/>
<circle cx="344" cy="395" r="1.6"/>
<circle cx="351" cy="394" r="1.6"/>
<circle cx="358" cy="394" r="1.6"/>
<circle cx="364" cy="393" r="1.6"/>
<circle cx="371" cy="392" r="1.6"/>
<circle cx="378" cy="391" r="1.6"/>
<circle cx="385" cy="390" r="1.6"/>
<circle cx="392" cy="389" r="1.6"/>
<circle cx="400" cy="387" r="1.6"/>
<circle cx="407" cy="386" r="1.6"/>
<circle cx="414" cy="385" r="1.6"/>
<circle cx="421" cy="383" r="1.6"/>
<circle cx="428" cy="381" r="1.6"/>
<circle cx="436" cy="380" r="1.6"/>
<circle cx="443" cy="378" r="1.6"/>
<circle cx="450" cy="376" r="1.6"/>
<circle cx="457" cy="374" r="1.6"/>
<circle cx="465" cy="371" r="1.6"/>
<circle cx="472" cy="369" r="1.6"/>
<circle cx="478" cy="366" r="1.6"/>
<circle cx="485" cy="363" r="1.6"/>
<circle cx="492" cy="360" r="1.6"/>
<circle cx="498" cy="357" r="1.6"/>
<circle cx="504" cy="354" r="1.6"/>
<circle cx="510" cy="350" r="1.6"/>
<circle cx="516" cy="346" r="1.6"/>
<circle cx="521" cy="342" r="1.6"/>
<circle cx="526" cy="338" r="1.6"/>
<circle cx="530" cy="333" r="1.6"/>
<circle cx="534" cy="328" r="1.6"/>
<circle cx="538" cy="323" r="1.6"/>
<circle cx="541" cy="317" r="1.6"/>
<circle cx="543" cy="312" r="1.6"/>
<circle cx="545" cy="305" r="1.6"/>
<circle cx="546" cy="299" r="1.6"/>
<circle cx="546" cy="292" r="1.6"/>
<circle cx="545" cy="285" r="1.6"/>
<circle cx="544" cy="277" r="1.6"/>
<circle cx="542" cy="270" r="1.6"/>
<circle cx="539" cy="262" r="1.6"/>
<circle cx="535" cy="253" r="1.6"/>
<circle cx="530" cy="244" r="1.6"/>
<circle cx="524" cy="236" r="1.6"/>
<circle cx="518" cy="226" r="1.6"/>
<circle cx="510" cy="217" r="1.6"/>
<circle cx="502" cy="208" r="1.6"/>
<circle cx="493" cy="198" r="1.6"/>
<circle cx="483" cy="189" r="1.6"/>
<circle cx="473" cy="180" r="1.6"/>
<circle cx="461" cy="170" r="1.6"/>
<circle cx="450" cy="161" r="1.6"/>
<circle cx="437" cy="152" r="1.6"/>
<circle cx="425" cy="144" r="1.6"/>
<circle cx="412" cy="136" r="1.6"/>
<circle cx="399" cy="128" r="1.6"/>
<circle cx="385" cy="120" r="1.6"/>
<circle cx="372" cy="114" r="1.6"/>
<circle cx="358" cy="107" r="1.6"/>
<circle cx="345" cy="102" r="1.6"/>
</g>
<text x="8" y="16" fill="#aab4d0">lotka — state.x ∈ [-225,23559], state.y ∈ [-228,23271]</text>
<text x="320" y="474" fill="#8a94b4" text-anchor="middle">state.x →</text>
<text x="14" y="240" fill="#8a94b4" text-anchor="middle" transform="rotate(-90 14 240)">state.y →</text>
</svg>
