<svg xmlns="http://www.w3.org/2000/svg" width="640" height="480" viewBox="0 0 640 480" font-family="monospace" font-size="12">
<rect width="640" height="480" fill="#0a0c14"/>
<g stroke="#323c5a" stroke-width="1">
<line x1="0" y1="222" x2="640" y2="222"/>
<line x1="281" y1="0" x2="281" y2="480"/>
</g>
<g stroke="#5aaaff" stroke-width="1" fill="none">
<line x1="40" y1="440" x2="30" y2="428"/>
<polyline points="35.1,430.2 30,428 31.3,433.4"/>
<line x1="40" y1="407" x2="31" y2="394"/>
<polyline points="35.9,396.7 31,394 31.8,399.5"/>
<line x1="40" y1="373" x2="33" y2="359"/>
<polyline points="37.5,362.4 33,359 33.0,364.6"/>
<line x1="40" y1="340" x2="36" y2="325"/>
<polyline points="39.7,329.2 36,325 34.9,330.5"/>
<line x1="40" y1="307" x2="39" y2="291"/>
<polyline points="41.8,295.8 39,291 36.8,296.1"/>
<line x1="40" y1="273" x2="42" y2="257"/>
<polyline points="43.9,262.3 42,257 38.9,261.7"/>
<line x1="40" y1="240" x2="45" y2="225"/>
<polyline points="45.8,230.5 45,225 41.0,229.0"/>
<line x1="40" y1="207" x2="48" y2="193"/>
<polyline points="47.7,198.6 48,193 43.3,196.1"/>
<line x1="40" y1="173" x2="51" y2="161"/>
<polyline points="49.5,166.4 51,161 45.8,163.0"/>
<line x1="40" y1="140" x2="52" y2="130"/>
<polyline points="49.8,135.1 52,130 46.6,131.3"/>
<line x1="40" y1="107" x2="53" y2="98"/>
<polyline points="50.3,102.9 53,98 47.5,98.8"/>
<line x1="40" y1="73" x2="54" y2="65"/>
<polyline points="50.9,69.7 54,65 48.4,65.3"/>
<line x1="40" y1="40" x2="55" y2="34"/>
<polyline points="51.3,38.2 55,34 49.4,33.5"/>
<line x1="87" y1="440" x2="75" y2="429"/>
<polyline points="80.4,430.5 75,429 77.0,434.2"/>
<line x1="87" y1="407" x2="77" y2="395"/>
<polyline points="82.1,397.2 77,395 78.3,400.4"/>
<line x1="87" y1="373" x2="78" y2="360"/>
<polyline points="82.9,362.7 78,360 78.8,365.5"/>
<line x1="87" y1="340" x2="81" y2="325"/>
<polyline points="85.2,328.7 81,325 80.5,330.6"/>
<line x1="87" y1="307" x2="84" y2="291"/>
<polyline points="87.4,295.5 84,291 82.5,296.4"/>
<line x1="87" y1="273" x2="88" y2="257"/>
<polyline points="90.2,262.1 88,257 85.2,261.8"/>
<line x1="87" y1="240" x2="92" y2="225"/>
<polyline points="92.8,230.5 92,225 88.0,229.0"/>
<line x1="87" y1="207" x2="96" y2="194"/>
<polyline points="95.2,199.5 96,194 91.1,196.7"/>
<line x1="87" y1="173" x2="98" y2="162"/>
<polyline points="96.2,167.3 98,162 92.7,163.8"/>
<line x1="87" y1="140" x2="100" y2="131"/>
<polyline points="97.3,135.9 100,131 94.5,131.8"/>
<line x1="87" y1="107" x2="101" y2="99"/>
<polyline points="97.9,103.7 101,99 95.4,99.3"/>
<line x1="87" y1="73" x2="102" y2="67"/>
<polyline points="98.3,71.2 102,67 96.4,66.5"/>
<line x1="87" y1="40" x2="102" y2="35"/>
<polyline points="98.0,39.0 102,35 96.5,34.2"/>
<line x1="133" y1="440" x2="120" y2="431"/>
<polyline points="125.5,431.8 120,431 122.7,435.9"/>
<line x1="133" y1="407" x2="121" y2="397"/>
<polyline points="126.4,398.3 121,397 123.2,402.1"/>
<line x1="133" y1="373" x2="122" y2="361"/>
<polyline points="127.2,363.0 122,361 123.5,366.4"/>
<line x1="133" y1="340" x2="124" y2="327"/>
<polyline points="128.9,329.7 124,327 124.8,332.5"/>
<line x1="133" y1="307" x2="127" y2="292"/>
<polyline points="131.2,295.7 127,292 126.5,297.6"/>
<line x1="133" y1="273" x2="132" y2="257"/>
<polyline points="134.8,261.8 132,257 129.8,262.1"/>
<line x1="133" y1="240" x2="138" y2="225"/>
<polyline points="138.8,230.5 138,225 134.0,229.0"/>
<line x1="133" y1="207" x2="142" y2="194"/>
<polyline points="141.2,199.5 142,194 137.1,196.7"/>
<line x1="133" y1="173" x2="145" y2="163"/>
<polyline points="142.8,168.1 145,163 139.6,164.3"/>
<line x1="133" y1="140" x2="147" y2="132"/>
<polyline points="143.9,136.7 147,132 141.4,132.3"/>
<line x1="133" y1="107" x2="148" y2="101"/>
<polyline points="144.3,105.2 148,101 142.4,100.5"/>
<line x1="133" y1="73" x2="148" y2="68"/>
<polyline points="144.0,72.0 148,68 142.5,67.2"/>
<line x1="133" y1="40" x2="149" y2="36"/>
<polyline points="144.8,39.6 149,36 143.5,34.8"/>
<line x1="180" y1="440" x2="166" y2="433"/>
<polyline points="171.6,433.0 166,433 169.4,437.5"/>
<line x1="180" y1="407" x2="166" y2="399"/>
<polyline points="171.6,399.3 166,399 169.1,403.7"/>
<line x1="180" y1="373" x2="167" y2="364"/>
<polyline points="172.5,364.8 167,364 169.7,368.9"/>
<line x1="180" y1="340" x2="168" y2="329"/>
<polyline points="173.4,330.5 168,329 170.0,334.2"/>
<line x1="180" y1="307" x2="170" y2="294"/>
<polyline points="175.0,296.4 170,294 171.1,299.5"/>
<line x1="180" y1="273" x2="175" y2="258"/>
<polyline points="179.0,262.0 175,258 174.2,263.5"/>
<line x1="180" y1="240" x2="182" y2="224"/>
<polyline points="183.9,229.3 182,224 178.9,228.7"/>
<line x1="180" y1="207" x2="190" y2="194"/>
<polyline points="188.9,199.5 190,194 185.0,196.4"/>
<line x1="180" y1="173" x2="193" y2="164"/>
<polyline points="190.3,168.9 193,164 187.5,164.8"/>
<line x1="180" y1="140" x2="195" y2="134"/>
<polyline points="191.3,138.2 195,134 189.4,133.5"/>
<line x1="180" y1="107" x2="195" y2="103"/>
<polyline points="190.8,106.7 195,103 189.5,101.9"/>
<line x1="180" y1="73" x2="196" y2="70"/>
<polyline points="191.5,73.4 196,70 190.6,68.5"/>
<line x1="180" y1="40" x2="196" y2="38"/>
<polyline points="191.3,41.1 196,38 190.7,36.1"/>
<line x1="227" y1="440" x2="212" y2="435"/>
<polyline points="217.5,434.2 212,435 216.0,439.0"/>
<line x1="227" y1="407" x2="212" y2="401"/>
<polyline points="217.6,400.5 212,401 215.7,405.2"/>
<line x1="227" y1="373" x2="212" y2="367"/>
<polyline points="217.6,366.5 212,367 215.7,371.2"/>
<line x1="227" y1="340" x2="213" y2="333"/>
<polyline points="218.6,333.0 213,333 216.4,337.5"/>
<line x1="227" y1="307" x2="213" y2="298"/>
<polyline points="218.6,298.6 213,298 215.9,302.8"/>
<line x1="227" y1="273" x2="216" y2="261"/>
<polyline points="221.2,263.0 216,261 217.5,266.4"/>
<line x1="227" y1="240" x2="225" y2="224"/>
<polyline points="228.1,228.7 225,224 223.1,229.3"/>
<line x1="227" y1="207" x2="238" y2="196"/>
<polyline points="236.2,201.3 238,196 232.7,197.8"/>
<line x1="227" y1="173" x2="242" y2="167"/>
<polyline points="238.3,171.2 242,167 236.4,166.5"/>
<line x1="227" y1="140" x2="243" y2="137"/>
<polyline points="238.5,140.4 243,137 237.6,135.5"/>
<line x1="227" y1="107" x2="243" y2="106"/>
<polyline points="238.2,108.8 243,106 237.9,103.8"/>
<line x1="227" y1="73" x2="243" y2="72"/>
<polyline points="238.2,74.8 243,72 237.9,69.8"/>
<line x1="227" y1="40" x2="243" y2="40"/>
<polyline points="238.0,42.5 243,40 238.0,37.5"/>
<line x1="273" y1="440" x2="257" y2="437"/>
<polyline points="262.4,435.5 257,437 261.5,440.4"/>
<line x1="273" y1="407" x2="257" y2="404"/>
<polyline points="262.4,402.5 257,404 261.5,407.4"/>
<line x1="273" y1="373" x2="257" y2="370"/>
<polyline points="262.4,368.5 257,370 261.5,373.4"/>
<line x1="273" y1="340" x2="257" y2="337"/>
<polyline points="262.4,335.5 257,337 261.5,340.4"/>
<line x1="273" y1="307" x2="257" y2="304"/>
<polyline points="262.4,302.5 257,304 261.5,307.4"/>
<line x1="273" y1="273" x2="257" y2="270"/>
<polyline points="262.4,268.5 257,270 261.5,273.4"/>
<line x1="273" y1="240" x2="257" y2="237"/>
<polyline points="262.4,235.5 257,237 261.5,240.4"/>
<line x1="273" y1="207" x2="289" y2="204"/>
<polyline points="284.5,207.4 289,204 283.6,202.5"/>
<line x1="273" y1="173" x2="289" y2="174"/>
<polyline points="283.9,176.2 289,174 284.2,171.2"/>
<line x1="273" y1="140" x2="289" y2="142"/>
<polyline points="283.7,143.9 289,142 284.3,138.9"/>
<line x1="273" y1="107" x2="289" y2="110"/>
<polyline points="283.6,111.5 289,110 284.5,106.6"/>
<line x1="273" y1="73" x2="289" y2="75"/>
<polyline points="283.7,76.9 289,75 284.3,71.9"/>
<line x1="273" y1="40" x2="289" y2="42"/>
<polyline points="283.7,43.9 289,42 284.3,38.9"/>
<line x1="320" y1="440" x2="304" y2="439"/>
<polyline points="309.1,436.8 304,439 308.8,441.8"/>
<line x1="320" y1="407" x2="304" y2="406"/>
<polyline points="309.1,403.8 304,406 308.8,408.8"/>
<line x1="320" y1="373" x2="304" y2="372"/>
<polyline points="309.1,369.8 304,372 308.8,374.8"/>
<line x1="320" y1="340" x2="304" y2="340"/>
<polyline points="309.0,337.5 304,340 309.0,342.5"/>
<line x1="320" y1="307" x2="304" y2="308"/>
<polyline points="308.8,305.2 304,308 309.1,310.2"/>
<line x1="320" y1="273" x2="304" y2="277"/>
<polyline points="308.2,273.4 304,277 309.5,278.2"/>
<line x1="320" y1="240" x2="308" y2="250"/>
<polyline points="310.2,244.9 308,250 313.4,248.7"/>
<line x1="320" y1="207" x2="326" y2="222"/>
<polyline points="321.8,218.3 326,222 326.5,216.4"/>
<line x1="320" y1="173" x2="333" y2="182"/>
<polyline points="327.5,181.2 333,182 330.3,177.1"/>
<line x1="320" y1="140" x2="335" y2="147"/>
<polyline points="329.4,147.2 335,147 331.5,142.6"/>
<line x1="320" y1="107" x2="335" y2="113"/>
<polyline points="329.4,113.5 335,113 331.3,108.8"/>
<line x1="320" y1="73" x2="335" y2="78"/>
<polyline points="329.5,78.8 335,78 331.0,74.0"/>
<line x1="320" y1="40" x2="335" y2="45"/>
<polyline points="329.5,45.8 335,45 331.0,41.0"/>
<line x1="367" y1="440" x2="351" y2="441"/>
<polyline points="355.8,438.2 351,441 356.1,443.2"/>
<line x1="367" y1="407" x2="351" y2="408"/>
<polyline points="355.8,405.2 351,408 356.1,410.2"/>
<line x1="367" y1="373" x2="351" y2="375"/>
<polyline points="355.7,371.9 351,375 356.3,376.9"/>
<line x1="367" y1="340" x2="351" y2="343"/>
<polyline points="355.5,339.6 351,343 356.4,344.5"/>
<line x1="367" y1="307" x2="352" y2="312"/>
<polyline points="356.0,308.0 352,312 357.5,312.8"/>
<line x1="367" y1="273" x2="353" y2="281"/>
<polyline points="356.1,276.3 353,281 358.6,280.7"/>
<line x1="367" y1="240" x2="356" y2="252"/>
<polyline points="357.5,246.6 356,252 361.2,250.0"/>
<line x1="367" y1="207" x2="364" y2="223"/>
<polyline points="362.5,217.6 364,223 367.4,218.5"/>
<line x1="367" y1="173" x2="373" y2="188"/>
<polyline points="368.8,184.3 373,188 373.5,182.4"/>
<line x1="367" y1="140" x2="378" y2="152"/>
<polyline points="372.8,150.0 378,152 376.5,146.6"/>
<line x1="367" y1="107" x2="380" y2="117"/>
<polyline points="374.5,115.9 380,117 377.6,112.0"/>
<line x1="367" y1="73" x2="381" y2="81"/>
<polyline points="375.4,80.7 381,81 377.9,76.3"/>
<line x1="367" y1="40" x2="381" y2="47"/>
<polyline points="375.4,47.0 381,47 377.6,42.5"/>
<line x1="413" y1="440" x2="397" y2="442"/>
<polyline points="401.7,438.9 397,442 402.3,443.9"/>
<line x1="413" y1="407" x2="397" y2="410"/>
<polyline points="401.5,406.6 397,410 402.4,411.5"/>
<line x1="413" y1="373" x2="398" y2="377"/>
<polyline points="402.2,373.3 398,377 403.5,378.1"/>
<line x1="413" y1="340" x2="398" y2="345"/>
<polyline points="402.0,341.0 398,345 403.5,345.8"/>
<line x1="413" y1="307" x2="399" y2="314"/>
<polyline points="402.4,309.5 399,314 404.6,314.0"/>
<line x1="413" y1="273" x2="400" y2="283"/>
<polyline points="402.4,278.0 400,283 405.5,281.9"/>
<line x1="413" y1="240" x2="404" y2="253"/>
<polyline points="404.8,247.5 404,253 408.9,250.3"/>
<line x1="413" y1="207" x2="409" y2="222"/>
<polyline points="407.9,216.5 409,222 412.7,217.8"/>
<line x1="413" y1="173" x2="415" y2="189"/>
<polyline points="411.9,184.3 415,189 416.9,183.7"/>
<line x1="413" y1="140" x2="420" y2="154"/>
<polyline points="415.5,150.6 420,154 420.0,148.4"/>
<line x1="413" y1="107" x2="423" y2="120"/>
<polyline points="418.0,117.6 423,120 421.9,114.5"/>
<line x1="413" y1="73" x2="425" y2="84"/>
<polyline points="419.6,82.5 425,84 423.0,78.8"/>
<line x1="413" y1="40" x2="426" y2="50"/>
<polyline points="420.5,48.9 426,50 423.6,45.0"/>
<line x1="460" y1="440" x2="444" y2="444"/>
<polyline points="448.2,440.4 444,444 449.5,445.2"/>
<line x1="460" y1="407" x2="445" y2="412"/>
<polyline points="449.0,408.0 445,412 450.5,412.8"/>
<line x1="460" y1="373" x2="445" y2="379"/>
<polyline points="448.7,374.8 445,379 450.6,379.5"/>
<line x1="460" y1="340" x2="446" y2="347"/>
<polyline points="449.4,342.5 446,347 451.6,347.0"/>
<line x1="460" y1="307" x2="447" y2="316"/>
<polyline points="449.7,311.1 447,316 452.5,315.2"/>
<line x1="460" y1="273" x2="448" y2="284"/>
<polyline points="450.0,278.8 448,284 453.4,282.5"/>
<line x1="460" y1="240" x2="451" y2="253"/>
<polyline points="451.8,247.5 451,253 455.9,250.3"/>
<line x1="460" y1="207" x2="455" y2="222"/>
<polyline points="454.2,216.5 455,222 459.0,218.0"/>
<line x1="460" y1="173" x2="460" y2="189"/>
<polyline points="457.5,184.0 460,189 462.5,184.0"/>
<line x1="460" y1="140" x2="464" y2="155"/>
<polyline points="460.3,150.8 464,155 465.1,149.5"/>
<line x1="460" y1="107" x2="467" y2="121"/>
<polyline points="462.5,117.6 467,121 467.0,115.4"/>
<line x1="460" y1="73" x2="470" y2="86"/>
<polyline points="465.0,83.6 470,86 468.9,80.5"/>
<line x1="460" y1="40" x2="471" y2="52"/>
<polyline points="465.8,50.0 471,52 469.5,46.6"/>
<line x1="507" y1="440" x2="492" y2="445"/>
<polyline points="496.0,441.0 492,445 497.5,445.8"/>
<line x1="507" y1="407" x2="492" y2="413"/>
<polyline points="495.7,408.8 492,413 497.6,413.5"/>
<line x1="507" y1="373" x2="493" y2="380"/>
<polyline points="496.4,375.5 493,380 498.6,380.0"/>
<line x1="507" y1="340" x2="493" y2="348"/>
<polyline points="496.1,343.3 493,348 498.6,347.7"/>
<line x1="507" y1="307" x2="494" y2="317"/>
<polyline points="496.4,312.0 494,317 499.5,315.9"/>
<line x1="507" y1="273" x2="496" y2="285"/>
<polyline points="497.5,279.6 496,285 501.2,283.0"/>
<line x1="507" y1="240" x2="498" y2="253"/>
<polyline points="498.8,247.5 498,253 502.9,250.3"/>
<line x1="507" y1="207" x2="501" y2="222"/>
<polyline points="500.5,216.4 501,222 505.2,218.3"/>
<line x1="507" y1="173" x2="505" y2="189"/>
<polyline points="503.1,183.7 505,189 508.1,184.3"/>
<line x1="507" y1="140" x2="509" y2="156"/>
<polyline points="505.9,151.3 509,156 510.9,150.7"/>
<line x1="507" y1="107" x2="512" y2="122"/>
<polyline points="508.0,118.0 512,122 512.8,116.5"/>
<line x1="507" y1="73" x2="514" y2="87"/>
<polyline points="509.5,83.6 514,87 514.0,81.4"/>
<line x1="507" y1="40" x2="516" y2="53"/>
<polyline points="511.1,50.3 516,53 515.2,47.5"/>
<line x1="553" y1="440" x2="538" y2="446"/>
<polyline points="541.7,441.8 538,446 543.6,446.5"/>
<line x1="553" y1="407" x2="539" y2="414"/>
<polyline points="542.4,409.5 539,414 544.6,414.0"/>
<line x1="553" y1="373" x2="539" y2="381"/>
<polyline points="542.1,376.3 539,381 544.6,380.7"/>
<line x1="553" y1="340" x2="540" y2="349"/>
<polyline points="542.7,344.1 540,349 545.5,348.2"/>
<line x1="553" y1="307" x2="541" y2="318"/>
<polyline points="543.0,312.8 541,318 546.4,316.5"/>
<line x1="553" y1="273" x2="543" y2="285"/>
<polyline points="544.3,279.6 543,285 548.1,282.8"/>
<line x1="553" y1="240" x2="545" y2="254"/>
<polyline points="545.3,248.4 545,254 549.7,250.9"/>
<line x1="553" y1="207" x2="547" y2="222"/>
<polyline points="546.5,216.4 547,222 551.2,218.3"/>
<line x1="553" y1="173" x2="550" y2="189"/>
<polyline points="548.5,183.6 550,189 553.4,184.5"/>
<line x1="553" y1="140" x2="553" y2="156"/>
<polyline points="550.5,151.0 553,156 555.5,151.0"/>
<line x1="553" y1="107" x2="556" y2="123"/>
<polyline points="552.6,118.5 556,123 557.5,117.6"/>
<line x1="553" y1="73" x2="559" y2="88"/>
<polyline points="554.8,84.3 559,88 559.5,82.4"/>
<line x1="553" y1="40" x2="560" y2="54"/>
<polyline points="555.5,50.6 560,54 560.0,48.4"/>
<line x1="600" y1="440" x2="586" y2="447"/>
<polyline points="589.4,442.5 586,447 591.6,447.0"/>
<line x1="600" y1="407" x2="586" y2="415"/>
<polyline points="589.1,410.3 586,415 591.6,414.7"/>
<line x1="600" y1="373" x2="587" y2="382"/>
<polyline points="589.7,377.1 587,382 592.5,381.2"/>
<line x1="600" y1="340" x2="587" y2="350"/>
<polyline points="589.4,345.0 587,350 592.5,348.9"/>
<line x1="600" y1="307" x2="589" y2="318"/>
<polyline points="590.8,312.7 589,318 594.3,316.2"/>
<line x1="600" y1="273" x2="590" y2="285"/>
<polyline points="591.3,279.6 590,285 595.1,282.8"/>
<line x1="600" y1="240" x2="592" y2="254"/>
<polyline points="592.3,248.4 592,254 596.7,250.9"/>
<line x1="600" y1="207" x2="594" y2="222"/>
<polyline points="593.5,216.4 594,222 598.2,218.3"/>
<line x1="600" y1="173" x2="597" y2="189"/>
<polyline points="595.5,183.6 597,189 600.4,184.5"/>
<line x1="600" y1="140" x2="599" y2="156"/>
<polyline points="596.8,150.9 599,156 601.8,151.2"/>
<line x1="600" y1="107" x2="602" y2="123"/>
<polyline points="598.9,118.3 602,123 603.9,117.7"/>
<line x1="600" y1="73" x2="604" y2="88"/>
<polyline points="600.3,83.8 604,88 605.1,82.5"/>
<line x1="600" y1="40" x2="606" y2="55"/>
<polyline points="601.8,51.3 606,55 606.5,49.4"/>
</g>
<g fill="#50e678">
<circle cx="546" cy="222" r="1.6"/>
<circle cx="513" cy="294" r="1.6"/>
<circle cx="455" cy="352" r="1.6"/>
<circle cx="378" cy="389" r="1.6"/>
<circle cx="296" cy="401" r="1.6"/>
<circle cx="219" cy="390" r="1.6"/>
<circle cx="156" cy="361" r="1.6"/>
<circle cx="113" cy="317" r="1.6"/>
<circle cx="94" cy="266" r="1.6"/>
<circle cx="99" cy="213" r="1.6"/>
<circle cx="125" cy="163" r="1.6"/>
<circle cx="169" cy="127" r="1.6"/>
<circle cx="224" cy="104" r="1.6"/>
<circle cx="280" cy="99" r="1.6"/>
<circle cx="331" cy="109" r="1.6"/>
<circle cx="374" cy="130" r="1.6"/>
<circle cx="402" cy="160" r="1.6"/>
<circle cx="413" cy="197" r="1.6"/>
<circle cx="409" cy="234" r="1.6"/>
<circle cx="388" cy="267" r="1.6"/>
<circle cx="356" cy="293" r="1.6"/>
<circle cx="318" cy="307" r="1.6"/>
<circle cx="278" cy="310" r="1.6"/>
<circle cx="241" cy="304" r="1.6"/>
<circle cx="212" cy="288" r="1.6"/>
<circle cx="193" cy="266" r="1.6"/>
<circle cx="185" cy="238" r="1.6"/>
<circle cx="190" cy="213" r="1.6"/>
<circle cx="205" cy="189" r="1.6"/>
<circle cx="228" cy="170" r="1.6"/>
<circle cx="257" cy="159" r="1.6"/>
<circle cx="287" cy="157" r="1.6"/>
<circle cx="313" cy="163" r="1.6"/>
<circle cx="334" cy="176" r="1.6"/>
<circle cx="347" cy="194" r="1.6"/>
<circle cx="352" cy="213" r="1.6"/>
<circle cx="347" cy="232" r="1.6"/>
<circle cx="335" cy="250" r="1.6"/>
<circle cx="318" cy="262" r="1.6"/>
<circle cx="297" cy="269" r="1.6"/>
<circle cx="277" cy="269" r="1.6"/>
<circle cx="257" cy="266" r="1.6"/>
<circle cx="243" cy="256" r="1.6"/>
<circle cx="232" cy="245" r="1.6"/>
<circle cx="230" cy="230" r="1.6"/>
<circle cx="231" cy="218" r="1.6"/>
<circle cx="238" cy="205" r="1.6"/>
<circle cx="252" cy="194" r="1.6"/>
<circle cx="268" cy="187" r="1.6"/>
<circle cx="284" cy="186" r="1.6"/>
<circle cx="300" cy="187" r="1.6"/>
<circle cx="313" cy="194" r="1.6"/>
<circle cx="322" cy="203" r="1.6"/>
<circle cx="325" cy="216" r="1.6"/>
<circle cx="324" cy="227" r="1.6"/>
<circle cx="316" cy="238" r="1.6"/>
<circle cx="305" cy="248" r="1.6"/>
<circle cx="291" cy="253" r="1.6"/>
<circle cx="278" cy="253" r="1.6"/>
<circle cx="265" cy="251" r="1.6"/>
<circle cx="255" cy="246" r="1.6"/>
<circle cx="247" cy="238" r="1.6"/>
<circle cx="244" cy="230" r="1.6"/>
<circle cx="244" cy="221" r="1.6"/>
<circle cx="249" cy="211" r="1.6"/>
<circle cx="257" cy="203" r="1.6"/>
<circle cx="268" cy="198" r="1.6"/>
<circle cx="280" cy="197" r="1.6"/>
<circle cx="290" cy="198" r="1.6"/>
<circle cx="299" cy="202" r="1.6"/>
<circle cx="305" cy="208" r="1.6"/>
<circle cx="307" cy="214" r="1.6"/>
<circle cx="307" cy="221" r="1.6"/>
<circle cx="306" cy="227" r="1.6"/>
<circle cx="302" cy="234" r="1.6"/>
<circle cx="294" cy="238" r="1.6"/>
<circle cx="285" cy="242" r="1.6"/>
<circle cx="278" cy="240" r="1.6"/>
<circle cx="271" cy="240" r="1.6"/>
<circle cx="263" cy="238" r="1.6"/>
<circle cx="259" cy="234" r="1.6"/>
<circle cx="256" cy="229" r="1.6"/>
<circle cx="256" cy="222" r="1.6"/>
<circle cx="259" cy="216" r="1.6"/>
<circle cx="263" cy="211" r="1.6"/>
<circle cx="271" cy="206" r="1.6"/>
<circle cx="278" cy="205" r="1.6"/>
<circle cx="285" cy="205" r="1.6"/>
<circle cx="293" cy="205" r="1.6"/>
<circle cx="299" cy="208" r="1.6"/>
<circle cx="303" cy="213" r="1.6"/>
<circle cx="305" cy="218" r="1.6"/>
<circle cx="305" cy="224" r="1.6"/>
<circle cx="302" cy="230" r="1.6"/>
<circle cx="296" cy="235" r="1.6"/>
<circle cx="288" cy="238" r="1.6"/>
<circle cx="281" cy="240" r="1.6"/>
<circle cx="274" cy="240" r="1.6"/>
<circle cx="266" cy="238" r="1.6"/>
<circle cx="260" cy="235" r="1.6"/>
<circle cx="257" cy="230" r="1.6"/>
<circle cx="257" cy="224" r="1.6"/>
<circle cx="259" cy="218" r="1.6"/>
<circle cx="263" cy="213" r="1.6"/>
<circle cx="269" cy="208" r="1.6"/>
<circle cx="277" cy="205" r="1.6"/>
<circle cx="284" cy="205" r="1.6"/>
<circle cx="291" cy="205" r="1.6"/>
<circle cx="299" cy="206" r="1.6"/>
<circle cx="303" cy="211" r="1.6"/>
<circle cx="306" cy="216" r="1.6"/>
<circle cx="306" cy="222" r="1.6"/>
<circle cx="303" cy="229" r="1.6"/>
<circle cx="299" cy="234" r="1.6"/>
<circle cx="291" cy="238" r="1.6"/>
<circle cx="284" cy="240" r="1.6"/>
<circle cx="277" cy="240" r="1.6"/>
<circle cx="269" cy="240" r="1.6"/>
<circle cx="263" cy="237" r="1.6"/>
<circle cx="259" cy="232" r="1.6"/>
<circle cx="257" cy="227" r="1.6"/>
<circle cx="257" cy="221" r="1.6"/>
<circle cx="260" cy="214" r="1.6"/>
<circle cx="266" cy="210" r="1.6"/>
<circle cx="274" cy="206" r="1.6"/>
<circle cx="281" cy="205" r="1.6"/>
<circle cx="288" cy="205" r="1.6"/>
<circle cx="296" cy="206" r="1.6"/>
<circle cx="302" cy="210" r="1.6"/>
<circle cx="305" cy="214" r="1.6"/>
<circle cx="305" cy="221" r="1.6"/>
<circle cx="303" cy="227" r="1.6"/>
<circle cx="299" cy="232" r="1.6"/>
<circle cx="293" cy="237" r="1.6"/>
<circle cx="285" cy="240" r="1.6"/>
<circle cx="278" cy="240" r="1.6"/>
<circle cx="271" cy="240" r="1.6"/>
<circle cx="263" cy="238" r="1.6"/>
<circle cx="259" cy="234" r="1.6"/>
<circle cx="256" cy="229" r="1.6"/>
<circle cx="256" cy="222" r="1.6"/>
<circle cx="259" cy="216" r="1.6"/>
<circle cx="263" cy="211" r="1.6"/>
<circle cx="271" cy="206" r="1.6"/>
<circle cx="278" cy="205" r="1.6"/>
<circle cx="285" cy="205" r="1.6"/>
<circle cx="293" cy="205" r="1.6"/>
<circle cx="299" cy="208" r="1.6"/>
<circle cx="303" cy="213" r="1.6"/>
<circle cx="305" cy="218" r="1.6"/>
<circle cx="305" cy="224" r="1.6"/>
<circle cx="302" cy="230" r="1.6"/>
<circle cx="296" cy="235" r="1.6"/>
<circle cx="288" cy="238" r="1.6"/>
<circle cx="281" cy="240" r="1.6"/>
<circle cx="274" cy="240" r="1.6"/>
<circle cx="266" cy="238" r="1.6"/>
<circle cx="260" cy="235" r="1.6"/>
<circle cx="257" cy="230" r="1.6"/>
<circle cx="257" cy="224" r="1.6"/>
<circle cx="259" cy="218" r="1.6"/>
<circle cx="263" cy="213" r="1.6"/>
<circle cx="269" cy="208" r="1.6"/>
<circle cx="277" cy="205" r="1.6"/>
<circle cx="284" cy="205" r="1.6"/>
<circle cx="291" cy="205" r="1.6"/>
<circle cx="299" cy="206" r="1.6"/>
<circle cx="303" cy="211" r="1.6"/>
<circle cx="306" cy="216" r="1.6"/>
<circle cx="306" cy="222" r="1.6"/>
<circle cx="303" cy="229" r="1.6"/>
<circle cx="299" cy="234" r="1.6"/>
<circle cx="291" cy="238" r="1.6"/>
<circle cx="284" cy="240" r="1.6"/>
<circle cx="277" cy="240" r="1.6"/>
<circle cx="269" cy="240" r="1.6"/>
<circle cx="263" cy="237" r="1.6"/>
<circle cx="259" cy="232" r="1.6"/>
<circle cx="257" cy="227" r="1.6"/>
<circle cx="257" cy="221" r="1.6"/>
<circle cx="260" cy="214" r="1.6"/>
<circle cx="266" cy="210" r="1.6"/>
<circle cx="274" cy="206" r="1.6"/>
<circle cx="281" cy="205" r="1.6"/>
<circle cx="288" cy="205" r="1.6"/>
<circle cx="296" cy="206" r="1.6"/>
<circle cx="302" cy="210" r="1.6"/>
<circle cx="305" cy="214" r="1.6"/>
<circle cx="305" cy="221" r="1.6"/>
<circle cx="303" cy="227" r="1.6"/>
<circle cx="299" cy="232" r="1.6"/>
<circle cx="293" cy="237" r="1.6"/>
<circle cx="285" cy="240" r="1.6"/>
<circle cx="278" cy="240" r="1.6"/>
<circle cx="271" cy="240" r="1.6"/>
<circle cx="263" cy="238" r="1.6"/>
<circle cx="259" cy="234" r="1.6"/>
<circle cx="256" cy="229" r="1.6"/>
<circle cx="256" cy="222" r="1.6"/>
<circle cx="259" cy="216" r="1.6"/>
<circle cx="263" cy="211" r="1.6"/>
<circle cx="271" cy="206" r="1.6"/>
<circle cx="278" cy="205" r="1.6"/>
<circle cx="285" cy="205" r="1.6"/>
<circle cx="293" cy="205" r="1.6"/>
<circle cx="299" cy="208" r="1.6"/>
<circle cx="303" cy="213" r="1.6"/>
<circle cx="305" cy="218" r="1.6"/>
<circle cx="305" cy="224" r="1.6"/>
<circle cx="302" cy="230" r="1.6"/>
<circle cx="296" cy="235" r="1.6"/>
<circle cx="288" cy="238" r="1.6"/>
<circle cx="281" cy="240" r="1.6"/>
<circle cx="274" cy="240" r="1.6"/>
<circle cx="266" cy="238" r="1.6"/>
<circle cx="260" cy="235" r="1.6"/>
<circle cx="257" cy="230" r="1.6"/>
<circle cx="257" cy="224" r="1.6"/>
<circle cx="259" cy="218" r="1.6"/>
<circle cx="263" cy="213" r="1.6"/>
<circle cx="269" cy="208" r="1.6"/>
</g>
<g fill="#faaa32">
<circle cx="458" cy="159" r="1.6"/>
<circle cx="462" cy="211" r="1.6"/>
<circle cx="446" cy="259" r="1.6"/>
<circle cx="409" cy="302" r="1.6"/>
<circle cx="360" cy="329" r="1.6"/>
<circle cx="306" cy="342" r="1.6"/>
<circle cx="253" cy="339" r="1.6"/>
<circle cx="207" cy="323" r="1.6"/>
<circle cx="174" cy="296" r="1.6"/>
<circle cx="156" cy="262" r="1.6"/>
<circle cx="155" cy="226" r="1.6"/>
<circle cx="168" cy="192" r="1.6"/>
<circle cx="194" cy="163" r="1.6"/>
<circle cx="230" cy="146" r="1.6"/>
<circle cx="268" cy="139" r="1.6"/>
<circle cx="305" cy="143" r="1.6"/>
<circle cx="335" cy="155" r="1.6"/>
<circle cx="358" cy="175" r="1.6"/>
<circle cx="368" cy="198" r="1.6"/>
<circle cx="368" cy="222" r="1.6"/>
<circle cx="358" cy="245" r="1.6"/>
<circle cx="338" cy="264" r="1.6"/>
<circle cx="315" cy="275" r="1.6"/>
<circle cx="288" cy="280" r="1.6"/>
<circle cx="263" cy="277" r="1.6"/>
<circle cx="243" cy="269" r="1.6"/>
<circle cx="228" cy="256" r="1.6"/>
<circle cx="221" cy="240" r="1.6"/>
<circle cx="221" cy="224" r="1.6"/>
<circle cx="227" cy="208" r="1.6"/>
<circle cx="240" cy="194" r="1.6"/>
<circle cx="257" cy="184" r="1.6"/>
<circle cx="277" cy="181" r="1.6"/>
<circle cx="294" cy="184" r="1.6"/>
<circle cx="309" cy="190" r="1.6"/>
<circle cx="319" cy="198" r="1.6"/>
<circle cx="325" cy="210" r="1.6"/>
<circle cx="325" cy="221" r="1.6"/>
<circle cx="321" cy="232" r="1.6"/>
<circle cx="312" cy="242" r="1.6"/>
<circle cx="300" cy="248" r="1.6"/>
<circle cx="287" cy="251" r="1.6"/>
<circle cx="274" cy="251" r="1.6"/>
<circle cx="262" cy="248" r="1.6"/>
<circle cx="253" cy="242" r="1.6"/>
<circle cx="249" cy="234" r="1.6"/>
<circle cx="247" cy="226" r="1.6"/>
<circle cx="249" cy="218" r="1.6"/>
<circle cx="255" cy="210" r="1.6"/>
<circle cx="263" cy="203" r="1.6"/>
<circle cx="274" cy="200" r="1.6"/>
<circle cx="284" cy="200" r="1.6"/>
<circle cx="293" cy="202" r="1.6"/>
<circle cx="300" cy="206" r="1.6"/>
<circle cx="305" cy="211" r="1.6"/>
<circle cx="306" cy="218" r="1.6"/>
<circle cx="306" cy="224" r="1.6"/>
<circle cx="303" cy="230" r="1.6"/>
<circle cx="297" cy="235" r="1.6"/>
<circle cx="290" cy="238" r="1.6"/>
<circle cx="282" cy="240" r="1.6"/>
<circle cx="275" cy="240" r="1.6"/>
<circle cx="268" cy="238" r="1.6"/>
<circle cx="262" cy="235" r="1.6"/>
<circle cx="259" cy="230" r="1.6"/>
<circle cx="257" cy="226" r="1.6"/>
<circle cx="259" cy="219" r="1.6"/>
<circle cx="262" cy="214" r="1.6"/>
<circle cx="268" cy="210" r="1.6"/>
<circle cx="275" cy="206" r="1.6"/>
<circle cx="282" cy="205" r="1.6"/>
<circle cx="290" cy="205" r="1.6"/>
<circle cx="297" cy="206" r="1.6"/>
<circle cx="303" cy="210" r="1.6"/>
<circle cx="306" cy="214" r="1.6"/>
<circle cx="306" cy="221" r="1.6"/>
<circle cx="305" cy="227" r="1.6"/>
<circle cx="300" cy="234" r="1.6"/>
<circle cx="293" cy="238" r="1.6"/>
<circle cx="284" cy="242" r="1.6"/>
<circle cx="277" cy="240" r="1.6"/>
<circle cx="269" cy="240" r="1.6"/>
<circle cx="263" cy="237" r="1.6"/>
<circle cx="259" cy="232" r="1.6"/>
<circle cx="257" cy="227" r="1.6"/>
<circle cx="257" cy="221" r="1.6"/>
<circle cx="260" cy="214" r="1.6"/>
<circle cx="266" cy="210" r="1.6"/>
<circle cx="274" cy="206" r="1.6"/>
<circle cx="281" cy="205" r="1.6"/>
<circle cx="288" cy="205" r="1.6"/>
<circle cx="296" cy="206" r="1.6"/>
<circle cx="302" cy="210" r="1.6"/>
<circle cx="305" cy="214" r="1.6"/>
<circle cx="305" cy="221" r="1.6"/>
<circle cx="303" cy="227" r="1.6"/>
<circle cx="299" cy="232" r="1.6"/>
<circle cx="293" cy="237" r="1.6"/>
<circle cx="285" cy="240" r="1.6"/>
<circle cx="278" cy="240" r="1.6"/>
<circle cx="271" cy="240" r="1.6"/>
<circle cx="263" cy="238" r="1.6"/>
<circle cx="259" cy="234" r="1.6"/>
<circle cx="256" cy="229" r="1.6"/>
<circle cx="256" cy="222" r="1.6"/>
<circle cx="259" cy="216" r="1.6"/>
<circle cx="263" cy="211" r="1.6"/>
<circle cx="271" cy="206" r="1.6"/>
<circle cx="278" cy="205" r="1.6"/>
<circle cx="285" cy="205" r="1.6"/>
<circle cx="293" cy="205" r="1.6"/>
<circle cx="299" cy="208" r="1.6"/>
<circle cx="303" cy="213" r="1.6"/>
<circle cx="305" cy="218" r="1.6"/>
<circle cx="305" cy="224" r="1.6"/>
<circle cx="302" cy="230" r="1.6"/>
<circle cx="296" cy="235" r="1.6"/>
<circle cx="288" cy="238" r="1.6"/>
<circle cx="281" cy="240" r="1.6"/>
<circle cx="274" cy="240" r="1.6"/>
<circle cx="266" cy="238" r="1.6"/>
<circle cx="260" cy="235" r="1.6"/>
<circle cx="257" cy="230" r="1.6"/>
<circle cx="257" cy="224" r="1.6"/>
<circle cx="259" cy="218" r="1.6"/>
<circle cx="263" cy="213" r="1.6"/>
<circle cx="269" cy="208" r="1.6"/>
<circle cx="277" cy="205" r="1.6"/>
<circle cx="284" cy="205" r="1.6"/>
<circle cx="291" cy="205" r="1.6"/>
<circle cx="299" cy="206" r="1.6"/>
<circle cx="303" cy="211" r="1.6"/>
<circle cx="306" cy="216" r="1.6"/>
<circle cx="306" cy="222" r="1.6"/>
<circle cx="303" cy="229" r="1.6"/>
<circle cx="299" cy="234" r="1.6"/>
<circle cx="291" cy="238" r="1.6"/>
<circle cx="284" cy="240" r="1.6"/>
<circle cx="277" cy="240" r="1.6"/>
<circle cx="269" cy="240" r="1.6"/>
<circle cx="263" cy="237" r="1.6"/>
<circle cx="259" cy="232" r="1.6"/>
<circle cx="257" cy="227" r="1.6"/>
<circle cx="257" cy="221" r="1.6"/>
<circle cx="260" cy="214" r="1.6"/>
<circle cx="266" cy="210" r="1.6"/>
<circle cx="274" cy="206" r="1.6"/>
<circle cx="281" cy="205" r="1.6"/>
<circle cx="288" cy="205" r="1.6"/>
<circle cx="296" cy="206" r="1.6"/>
<circle cx="302" cy="210" r="1.6"/>
<circle cx="305" cy="214" r="1.6"/>
<circle cx="305" cy="221" r="1.6"/>
<circle cx="303" cy="227" r="1.6"/>
<circle cx="299" cy="232" r="1.6"/>
<circle cx="293" cy="237" r="1.6"/>
<circle cx="285" cy="240" r="1.6"/>
<circle cx="278" cy="240" r="1.6"/>
<circle cx="271" cy="240" r="1.6"/>
<circle cx="263" cy="238" r="1.6"/>
<circle cx="259" cy="234" r="1.6"/>
<circle cx="256" cy="229" r="1.6"/>
<circle cx="256" cy="222" r="1.6"/>
<circle cx="259" cy="216" r="1.6"/>
<circle cx="263" cy="211" r="1.6"/>
<circle cx="271" cy="206" r="1.6"/>
<circle cx="278" cy="205" r="1.6"/>
<circle cx="285" cy="205" r="1.6"/>
<circle cx="293" cy="205" r="1.6"/>
<circle cx="299" cy="208" r="1.6"/>
<circle cx="303" cy="213" r="1.6"/>
<circle cx="305" cy="218" r="1.6"/>
<circle cx="305" cy="224" r="1.6"/>
<circle cx="302" cy="230" r="1.6"/>
<circle cx="296" cy="235" r="1.6"/>
<circle cx="288" cy="238" r="1.6"/>
<circle cx="281" cy="240" r="1.6"/>
<circle cx="274" cy="240" r="1.6"/>
<circle cx="266" cy="238" r="1.6"/>
<circle cx="260" cy="235" r="1.6"/>
<circle cx="257" cy="230" r="1.6"/>
<circle cx="257" cy="224" r="1.6"/>
<circle cx="259" cy="218" r="1.6"/>
<circle cx="263" cy="213" r="1.6"/>
<circle cx="269" cy="208" r="1.6"/>
<circle cx="277" cy="205" r="1.6"/>
<circle cx="284" cy="205" r="1.6"/>
<circle cx="291" cy="205" r="1.6"/>
<circle cx="299" cy="206" r="1.6"/>
<circle cx="303" cy="211" r="1.6"/>
<circle cx="306" cy="216" r="1.6"/>
<circle cx="306" cy="222" r="1.6"/>
<circle cx="303" cy="229" r="1.6"/>
<circle cx="299" cy="234" r="1.6"/>
<circle cx="291" cy="238" r="1.6"/>
<circle cx="284" cy="240" r="1.6"/>
<circle cx="277" cy="240" r="1.6"/>
<circle cx="269" cy="240" r="1.6"/>
<circle cx="263" cy="237" r="1.6"/>
<circle cx="259" cy="232" r="1.6"/>
<circle cx="257" cy="227" r="1.6"/>
<circle cx="257" cy="221" r="1.6"/>
<circle cx="260" cy="214" r="1.6"/>
<circle cx="266" cy="210" r="1.6"/>
<circle cx="274" cy="206" r="1.6"/>
<circle cx="281" cy="205" r="1.6"/>
<circle cx="288" cy="205" r="1.6"/>
<circle cx="296" cy="206" r="1.6"/>
<circle cx="302" cy="210" r="1.6"/>
<circle cx="305" cy="214" r="1.6"/>
<circle cx="305" cy="221" r="1.6"/>
<circle cx="303" cy="227" r="1.6"/>
<circle cx="299" cy="232" r="1.6"/>
<circle cx="293" cy="237" r="1.6"/>
<circle cx="285" cy="240" r="1.6"/>
<circle cx="278" cy="240" r="1.6"/>
<circle cx="271" cy="240" r="1.6"/>
<circle cx="263" cy="238" r="1.6"/>
<circle cx="259" cy="234" r="1.6"/>
<circle cx="256" cy="229" r="1.6"/>
<circle cx="256" cy="222" r="1.6"/>
</g>
<g fill="#5ac8ff">
<circle cx="369" cy="79" r="1.6"/>
<circle cx="419" cy="114" r="1.6"/>
<circle cx="449" cy="159" r="1.6"/>
<circle cx="455" cy="208" r="1.6"/>
<circle cx="440" cy="254" r="1.6"/>
<circle cx="406" cy="296" r="1.6"/>
<circle cx="359" cy="325" r="1.6"/>
<circle cx="306" cy="337" r="1.6"/>
<circle cx="255" cy="334" r="1.6"/>
<circle cx="210" cy="320" r="1.6"/>
<circle cx="178" cy="293" r="1.6"/>
<circle cx="160" cy="261" r="1.6"/>
<circle cx="159" cy="226" r="1.6"/>
<circle cx="172" cy="194" r="1.6"/>
<circle cx="197" cy="167" r="1.6"/>
<circle cx="231" cy="147" r="1.6"/>
<circle cx="269" cy="139" r="1.6"/>
<circle cx="306" cy="143" r="1.6"/>
<circle cx="337" cy="155" r="1.6"/>
<circle cx="359" cy="175" r="1.6"/>
<circle cx="369" cy="198" r="1.6"/>
<circle cx="369" cy="224" r="1.6"/>
<circle cx="358" cy="248" r="1.6"/>
<circle cx="337" cy="267" r="1.6"/>
<circle cx="312" cy="278" r="1.6"/>
<circle cx="284" cy="283" r="1.6"/>
<circle cx="259" cy="278" r="1.6"/>
<circle cx="237" cy="270" r="1.6"/>
<circle cx="222" cy="256" r="1.6"/>
<circle cx="215" cy="238" r="1.6"/>
<circle cx="215" cy="221" r="1.6"/>
<circle cx="224" cy="203" r="1.6"/>
<circle cx="238" cy="190" r="1.6"/>
<circle cx="257" cy="181" r="1.6"/>
<circle cx="278" cy="178" r="1.6"/>
<circle cx="297" cy="181" r="1.6"/>
<circle cx="313" cy="187" r="1.6"/>
<circle cx="325" cy="197" r="1.6"/>
<circle cx="331" cy="210" r="1.6"/>
<circle cx="331" cy="222" r="1.6"/>
<circle cx="325" cy="235" r="1.6"/>
<circle cx="315" cy="246" r="1.6"/>
<circle cx="302" cy="253" r="1.6"/>
<circle cx="287" cy="256" r="1.6"/>
<circle cx="272" cy="256" r="1.6"/>
<circle cx="259" cy="253" r="1.6"/>
<circle cx="249" cy="246" r="1.6"/>
<circle cx="243" cy="237" r="1.6"/>
<circle cx="241" cy="227" r="1.6"/>
<circle cx="243" cy="218" r="1.6"/>
<circle cx="249" cy="208" r="1.6"/>
<circle cx="259" cy="200" r="1.6"/>
<circle cx="271" cy="197" r="1.6"/>
<circle cx="282" cy="197" r="1.6"/>
<circle cx="293" cy="198" r="1.6"/>
<circle cx="302" cy="203" r="1.6"/>
<circle cx="307" cy="210" r="1.6"/>
<circle cx="310" cy="216" r="1.6"/>
<circle cx="310" cy="224" r="1.6"/>
<circle cx="306" cy="232" r="1.6"/>
<circle cx="299" cy="238" r="1.6"/>
<circle cx="290" cy="243" r="1.6"/>
<circle cx="281" cy="243" r="1.6"/>
<circle cx="272" cy="242" r="1.6"/>
<circle cx="265" cy="238" r="1.6"/>
<circle cx="259" cy="235" r="1.6"/>
<circle cx="256" cy="230" r="1.6"/>
<circle cx="256" cy="224" r="1.6"/>
<circle cx="257" cy="218" r="1.6"/>
<circle cx="262" cy="211" r="1.6"/>
<circle cx="269" cy="206" r="1.6"/>
<circle cx="278" cy="203" r="1.6"/>
<circle cx="285" cy="205" r="1.6"/>
<circle cx="293" cy="205" r="1.6"/>
<circle cx="299" cy="208" r="1.6"/>
<circle cx="303" cy="213" r="1.6"/>
<circle cx="305" cy="218" r="1.6"/>
<circle cx="305" cy="224" r="1.6"/>
<circle cx="302" cy="230" r="1.6"/>
<circle cx="296" cy="235" r="1.6"/>
<circle cx="288" cy="238" r="1.6"/>
<circle cx="281" cy="240" r="1.6"/>
<circle cx="274" cy="240" r="1.6"/>
<circle cx="266" cy="238" r="1.6"/>
<circle cx="260" cy="235" r="1.6"/>
<circle cx="257" cy="230" r="1.6"/>
<circle cx="257" cy="224" r="1.6"/>
<circle cx="259" cy="218" r="1.6"/>
<circle cx="263" cy="213" r="1.6"/>
<circle cx="269" cy="208" r="1.6"/>
<circle cx="277" cy="205" r="1.6"/>
<circle cx="284" cy="205" r="1.6"/>
<circle cx="291" cy="205" r="1.6"/>
<circle cx="299" cy="206" r="1.6"/>
<circle cx="303" cy="211" r="1.6"/>
<circle cx="306" cy="216" r="1.6"/>
<circle cx="306" cy="222" r="1.6"/>
<circle cx="303" cy="229" r="1.6"/>
<circle cx="299" cy="234" r="1.6"/>
<circle cx="291" cy="238" r="1.6"/>
<circle cx="284" cy="240" r="1.6"/>
<circle cx="277" cy="240" r="1.6"/>
<circle cx="269" cy="240" r="1.6"/>
<circle cx="263" cy="237" r="1.6"/>
<circle cx="259" cy="232" r="1.6"/>
<circle cx="257" cy="227" r="1.6"/>
<circle cx="257" cy="221" r="1.6"/>
<circle cx="260" cy="214" r="1.6"/>
<circle cx="266" cy="210" r="1.6"/>
<circle cx="274" cy="206" r="1.6"/>
<circle cx="281" cy="205" r="1.6"/>
<circle cx="288" cy="205" r="1.6"/>
<circle cx="296" cy="206" r="1.6"/>
<circle cx="302" cy="210" r="1.6"/>
<circle cx="305" cy="214" r="1.6"/>
<circle cx="305" cy="221" r="1.6"/>
<circle cx="303" cy="227" r="1.6"/>
<circle cx="299" cy="232" r="1.6"/>
<circle cx="293" cy="237" r="1.6"/>
<circle cx="285" cy="240" r="1.6"/>
<circle cx="278" cy="240" r="1.6"/>
<circle cx="271" cy="240" r="1.6"/>
<circle cx="263" cy="238" r="1.6"/>
<circle cx="259" cy="234" r="1.6"/>
<circle cx="256" cy="229" r="1.6"/>
<circle cx="256" cy="222" r="1.6"/>
<circle cx="259" cy="216" r="1.6"/>
<circle cx="263" cy="211" r="1.6"/>
<circle cx="271" cy="206" r="1.6"/>
<circle cx="278" cy="205" r="1.6"/>
<circle cx="285" cy="205" r="1.6"/>
<circle cx="293" cy="205" r="1.6"/>
<circle cx="299" cy="208" r="1.6"/>
<circle cx="303" cy="213" r="1.6"/>
<circle cx="305" cy="218" r="1.6"/>
<circle cx="305" cy="224" r="1.6"/>
<circle cx="302" cy="230" r="1.6"/>
<circle cx="296" cy="235" r="1.6"/>
<circle cx="288" cy="238" r="1.6"/>
<circle cx="281" cy="240" r="1.6"/>
<circle cx="274" cy="240" r="1.6"/>
<circle cx="266" cy="238" r="1.6"/>
<circle cx="260" cy="235" r="1.6"/>
<circle cx="257" cy="230" r="1.6"/>
<circle cx="257" cy="224" r="1.6"/>
<circle cx="259" cy="218" r="1.6"/>
<circle cx="263" cy="213" r="1.6"/>
<circle cx="269" cy="208" r="1.6"/>
<circle cx="277" cy="205" r="1.6"/>
<circle cx="284" cy="205" r="1.6"/>
<circle cx="291" cy="205" r="1.6"/>
<circle cx="299" cy="206" r="1.6"/>
<circle cx="303" cy="211" r="1.6"/>
<circle cx="306" cy="216" r="1.6"/>
<circle cx="306" cy="222" r="1.6"/>
<circle cx="303" cy="229" r="1.6"/>
<circle cx="299" cy="234" r="1.6"/>
<circle cx="291" cy="238" r="1.6"/>
<circle cx="284" cy="240" r="1.6"/>
<circle cx="277" cy="240" r="1.6"/>
<circle cx="269" cy="240" r="1.6"/>
<circle cx="263" cy="237" r="1.6"/>
<circle cx="259" cy="232" r="1.6"/>
<circle cx="257" cy="227" r="1.6"/>
<circle cx="257" cy="221" r="1.6"/>
<circle cx="260" cy="214" r="1.6"/>
<circle cx="266" cy="210" r="1.6"/>
<circle cx="274" cy="206" r="1.6"/>
<circle cx="281" cy="205" r="1.6"/>
<circle cx="288" cy="205" r="1.6"/>
<circle cx="296" cy="206" r="1.6"/>
<circle cx="302" cy="210" r="1.6"/>
<circle cx="305" cy="214" r="1.6"/>
<circle cx="305" cy="221" r="1.6"/>
<circle cx="303" cy="227" r="1.6"/>
<circle cx="299" cy="232" r="1.6"/>
<circle cx="293" cy="237" r="1.6"/>
<circle cx="285" cy="240" r="1.6"/>
<circle cx="278" cy="240" r="1.6"/>
<circle cx="271" cy="240" r="1.6"/>
<circle cx="263" cy="238" r="1.6"/>
<circle cx="259" cy="234" r="1.6"/>
<circle cx="256" cy="229" r="1.6"/>
<circle cx="256" cy="222" r="1.6"/>
<circle cx="259" cy="216" r="1.6"/>
<circle cx="263" cy="211" r="1.6"/>
<circle cx="271" cy="206" r="1.6"/>
<circle cx="278" cy="205" r="1.6"/>
<circle cx="285" cy="205" r="1.6"/>
<circle cx="293" cy="205" r="1.6"/>
<circle cx="299" cy="208" r="1.6"/>
<circle cx="303" cy="213" r="1.6"/>
<circle cx="305" cy="218" r="1.6"/>
<circle cx="305" cy="224" r="1.6"/>
<circle cx="302" cy="230" r="1.6"/>
<circle cx="296" cy="235" r="1.6"/>
<circle cx="288" cy="238" r="1.6"/>
<circle cx="281" cy="240" r="1.6"/>
<circle cx="274" cy="240" r="1.6"/>
<circle cx="266" cy="238" r="1.6"/>
<circle cx="260" cy="235" r="1.6"/>
<circle cx="257" cy="230" r="1.6"/>
<circle cx="257" cy="224" r="1.6"/>
<circle cx="259" cy="218" r="1.6"/>
<circle cx="263" cy="213" r="1.6"/>
<circle cx="269" cy="208" r="1.6"/>
<circle cx="277" cy="205" r="1.6"/>
<circle cx="284" cy="205" r="1.6"/>
<circle cx="291" cy="205" r="1.6"/>
<circle cx="299" cy="206" r="1.6"/>
<circle cx="303" cy="211" r="1.6"/>
<circle cx="306" cy="216" r="1.6"/>
<circle cx="306" cy="222" r="1.6"/>
<circle cx="303" cy="229" r="1.6"/>
<circle cx="299" cy="234" r="1.6"/>
<circle cx="291" cy="238" r="1.6"/>
<circle cx="284" cy="240" r="1.6"/>
<circle cx="277" cy="240" r="1.6"/>
<circle cx="269" cy="240" r="1.6"/>
<circle cx="263" cy="237" r="1.6"/>
<circle cx="259" cy="232" r="1.6"/>
</g>
<text x="8" y="16" fill="#aab4d0">spring — state.pos ∈ [-164,217], state.vel ∈ [-136,114]</text>
<text x="320" y="474" fill="#8a94b4" text-anchor="middle">state.pos →</text>
<text x="14" y="240" fill="#8a94b4" text-anchor="middle" transform="rotate(-90 14 240)">state.vel →</text>
</svg>
